<?xml version="1.0" encoding="UTF-8"?>
<svg
  xmlns:xlink="http://www.w3.org/1999/xlink" id="_レイヤー_2" data-name="レイヤー 2" xmlns="http://www.w3.org/2000/svg" viewBox="0 0 578.78 730.42">
  <defs>
    <style>
      .cls-1 {
        fill: none;
      }

      .cls-1, .cls-2, .cls-3, .cls-4 {
        stroke: #6a3906;
        stroke-linecap: round;
        stroke-linejoin: round;
        stroke-width: 6px;
      }

      .cls-2, .cls-5 {
        fill: #cbd5dc;
      }

      .cls-3 {
        fill: #b9c3c9;
      }

      .cls-6 {
        fill: #fffcdb;
      }

      .cls-4 {
        fill: #fff;
      }
    </style>
  </defs>
  <g id="_レイヤー_1-2" data-name="レイヤー 1">
  <animateTransform attributeName="transform"
                    attributeType="XML"
                    type="rotate"
                    values="0 289.39 472.41; 6 289.39 472.41; -6 289.39 472.41; 0 289.39 472.41"
                    dur="2s"
                    repeatCount="indefinite"/>
    <ellipse class="cls-3" cx="289.39" cy="472.41" rx="286.39" ry="115.91"/>
    <path class="cls-4" d="M566.11,502.37c-5.07-10.91-16.94-20.32-24.94-34.9-11.7-21.29-94.39-23.21-116.16-42.36-21.77-19.15-57.36-27.68-86.19-21.13-28.83,6.55-80.71,5.52-118.28-10.45-37.58-15.98-68.01,5.03-95.33,23.35-27.32,18.33-41.83,47.83-60.26,49.34-18.43,1.51-46.56,27.07-38.72,45.15v.02c19.86,36.53,52.96,92.44,93.46,144.8,43.95,35.27,101.3,56.15,169.89,56.15,133,0,223.46-78.49,256.12-188.18,0,0-.02.01-.02.02,8.54-6.91,15.42-14.21,20.44-21.81Z"/>
    <path class="cls-3" d="M289.39,588.32c-112.2,0-209.31-26.12-256.3-64.15,32.77,109.7,123.48,188.18,256.48,188.18s223.46-78.49,256.12-188.18c-46.98,38.03-144.1,64.15-256.3,64.15Z"/>
    <path class="cls-3" d="M289.58,712.35c-48.87,0-92.03-10.61-128.7-29.46,32.7,27.88,76.14,44.53,128.55,44.53s95.34-16.47,127.92-44.09c-36.44,18.58-79.27,29.02-127.77,29.02Z"/>
    <path class="cls-2" d="M289.39,356.49c-158.17,0-286.39,51.9-286.39,115.91s128.22,115.92,286.39,115.92,286.39-51.9,286.39-115.92-128.22-115.91-286.39-115.91ZM289.37,570.8c-149.03,0-269.85-45.09-269.85-100.71s120.82-100.71,269.85-100.71,269.85,45.09,269.85,100.71-120.81,100.71-269.85,100.71Z"/>
    <g>
      <path class="cls-6" d="M290.15,513.59c2.96-.3,35.55-22.48,85.5-10.59,49.95,11.89,97.01-44.58,97.01-44.58,0,0-20.95,58.82-91.19,52.95-70.24-5.87-91.32,2.22-91.32,2.22Z"/>
      <path class="cls-6" d="M298.75,499.07c2.13-.49,23.87-19.74,61.48-15.72,37.6,4.02,66.71-41.63,66.71-41.63,0,0-9.81,44.93-61.68,47.2-51.86,2.27-66.5,10.15-66.5,10.15Z"/>
      <path class="cls-6" d="M311.6,479.6s27.18-16.69,45.01-17.46c34.67-1.5,55.84-18.55,55.84-18.55,0,0-32,28.09-54.07,26.33-22.07-1.76-46.79,9.68-46.79,9.68Z"/>
      <path class="cls-6" d="M272.52,526.31s-45.4,13.52-19.48,53.7c0,0-8.98-29.94,19.48-53.7Z"/>
      <path class="cls-6" d="M297.25,524.82s-53.87,18.35-10.02,58.72c0,0-29.57-36.83,10.02-58.72Z"/>
      <path class="cls-6" d="M300.21,544.42s-11.71,32.02,24.65,37.32c0,0-24.73-8.46-24.65-37.32Z"/>
      <path class="cls-6" d="M220.85,428.02s-84.22,3.49-106.84,75.42c0,0,37.7-60.5,106.84-75.42Z"/>
      <path class="cls-6" d="M196.84,466.26s-52.1,16.18-71,55.89c0,0,33.57-42.18,71-55.89Z"/>
      <path class="cls-6" d="M237.52,475.1s-67.16,34.61-49.21,94.5c0,0-.33-62.65,49.21-94.5Z"/>
    </g>
    <g>
      <path class="cls-5" d="M559.15,471.96c-2.67,54.76-122.43,98.84-269.78,98.84S22.26,526.72,19.58,471.96H3.01c0,.15-.01.29-.01.44,0,64.02,128.22,115.92,286.39,115.92s286.39-51.9,286.39-115.92c0-.15,0-.29-.01-.44h-16.62Z"/>
      <path class="cls-1" d="M3.01,471.96c0,.15-.01.29-.01.44,0,64.02,128.22,115.92,286.39,115.92s286.39-51.9,286.39-115.92c0-.15,0-.29-.01-.44"/>
      <path class="cls-1" d="M559.15,471.96c-2.67,54.76-122.43,98.84-269.78,98.84S22.26,526.72,19.58,471.96"/>
    </g>
    <path class="cls-5" d="M509.46,546.57c-52.5,25.5-131.53,41.73-219.93,41.75h-.14c-88.43,0-167.47-16.23-220-41.72,33.56,97.79,110.65,165.73,220.14,165.75h.04c109.53,0,186.44-67.96,219.89-165.78Z"/>
    <path class="cls-1" d="M289.39,588.32c-112.2,0-209.31-26.12-256.3-64.15,32.77,109.7,123.48,188.18,256.48,188.18s223.46-78.49,256.12-188.18c-46.98,38.03-144.1,64.15-256.3,64.15Z"/>
  </g>
  <g id="_レイヤー_3" data-name="レイヤー 3">
    <g>
      <g>
        <path class="cls-1" d="M396.87,196.96c-69.46,82.78-200.89,112.26-246.36,166.44-45.46,54.18-27.24,101.53,6.78,130.07,34.01,28.54,83.81,38.27,129.27-15.91,45.46-54.18,51.68-188.74,121.13-271.52l-10.83-9.08Z"/>
        <path class="cls-1" d="M398.15,198.03c-69.45,82.78-186.94,123.97-232.4,178.15-45.46,54.18-34.82,95.17-8.38,117.35,26.43,22.18,68.65,25.55,114.11-28.63,45.46-54.18,65.63-177.03,135.09-259.81l-8.41-7.06Z"/>
        <path class="cls-1" d="M399.51,199.17c-69.46,82.77-174.26,134.61-219.72,188.79-45.46,54.18-41.71,89.39-22.16,105.79,19.54,16.4,54.87,13.99,100.33-40.2,45.46-54.18,78.31-166.39,147.77-249.17l-6.22-5.22Z"/>
        <path class="cls-1" d="M400.74,200.21c-69.46,82.78-159.48,147.01-204.94,201.19-45.46,54.18-49.73,82.65-38.22,92.32,11.51,9.66,38.81.51,84.28-53.67,45.46-54.18,93.09-153.99,162.55-236.77l-3.66-3.08Z"/>
        <path class="cls-1" d="M402.52,201.7c-69.46,82.77-145.04,159.13-190.5,213.31-45.46,54.18-57.58,76.07-53.91,79.15,3.67,3.08,23.12-12.65,68.59-66.83,45.46-54.18,107.53-141.87,176.99-224.65l-1.17-.98Z"/>
      </g>
      <rect class="cls-2" x="386.82" y="188.11" width="32.74" height="24.88" transform="translate(-9.62 380.48) rotate(-50)"/>
      <path class="cls-3" d="M565.2,8.21c-9.42-7.9-23.47-6.67-31.37,2.75l-146.49,174.58,34.11,28.62,146.49-174.58c7.9-9.42,6.68-23.46-2.74-31.37ZM544,46.51c-3.14,3.74-8.71,4.23-12.45,1.09-3.74-3.14-4.23-8.71-1.09-12.45l10.61-12.64c3.14-3.74,8.71-4.23,12.45-1.09,3.74,3.14,4.23,8.71,1.09,12.45l-10.61,12.64Z"/>
    </g>
    <g>
      <path class="cls-4" d="M107.51,521.35s5.56,8.6,21.92,8.87c0,0,8.13,4.66,13.77,3.32,8.59,10.32,58.49,18.92,77.3,5.45,18.81-13.47,15.73-32.84,4.24-48.87-11.49-16.04-37.94-47.12-37.94-47.12,0,0-3.74-22.79-43.03-41.68,0,0-.12-5.61-4.38-11.54-4.25-5.94-12.81-4.91-22.11,1.75-9.31,6.67-33.11,36.6-14.65,79.1,0,0-8.58,24.42,4.88,50.73Z"/>
      <path class="cls-6" d="M143.2,533.54s.08.09.11.13c34.92-13.95-3.46-53.75-3.46-53.75,26.76,46.14-10.41,50.3-10.41,50.3,0,0,8.13,4.66,13.77,3.32Z"/>
      <path class="cls-6" d="M103.47,445.45c-2.84-2.54-5.42-4.58-7.67-6.22-.05,9.41,1.85,19.95,6.82,31.39,31.78,36.85,4.88,50.73,4.88,50.73,0,0,43.6-1.87-4.03-75.9Z"/>
      <path class="cls-6" d="M131.25,463.31s-11.02-30.45-21.7-32.39c-10.67-1.94-8.76,10.77-8.76,10.77,0,0-3.37-21.85,10.31-19.07,13.68,2.79,20.16,40.69,20.16,40.69Z"/>
      <path class="cls-6" d="M155.42,502.92s22.71-20.16-21.83-110.79c0,0,29.93,70.23,21.83,110.79Z"/>
      <path class="cls-6" d="M143.46,402.14c49.79,35.64,49.47,99.21,39.02,116.52-10.45,17.3-28.22,9.99-28.22,9.99,38.49.87,42.39-70.23-10.79-126.51Z"/>
      <path class="cls-6" d="M154.33,539.05s67.22,5.18,59.49-42.01c0,0,23.38,58.15-59.49,42.01Z"/>
      <path class="cls-1" d="M107.51,521.35s5.56,8.6,21.92,8.87c0,0,8.13,4.66,13.77,3.32,8.59,10.32,58.49,18.92,77.3,5.45,18.81-13.47,15.73-32.84,4.24-48.87-11.49-16.04-37.94-47.12-37.94-47.12,0,0-3.74-22.79-43.03-41.68,0,0-.12-5.61-4.38-11.54-4.25-5.94-12.81-4.91-22.11,1.75-9.31,6.67-33.11,36.6-14.65,79.1,0,0-8.58,24.42,4.88,50.73Z"/>
    </g>
  </g>
</svg>