<svg width="375" height="58" viewBox="0 0 375 58" fill="none" xmlns="http://www.w3.org/2000/svg">
<path fill-rule="evenodd" clip-rule="evenodd" d="M375 58L359.375 51.9583C343.75 45.9167 312.5 33.8333 281.25 33.8333C250 33.8333 218.75 45.9167 187.5 51.9583C156.25 58 125 58 93.75 51.9583C62.5 45.9167 31.25 33.8333 15.625 27.7917L1.43051e-05 21.75V1.66893e-06H15.625C31.25 1.66893e-06 62.5 1.66893e-06 93.75 1.66893e-06C125 1.66893e-06 156.25 1.66893e-06 187.5 1.66893e-06C218.75 1.66893e-06 250 1.66893e-06 281.25 1.66893e-06C312.5 1.66893e-06 343.75 1.66893e-06 359.375 1.66893e-06H375V58Z" fill="#FAF5E4" fill-opacity="0.48"/>
</svg>
