<svg width="375" height="58" viewBox="0 0 375 58" fill="none" xmlns="http://www.w3.org/2000/svg">
<path fill-rule="evenodd" clip-rule="evenodd" d="M0 0L15.625 6.04167C31.25 12.0833 62.5 24.1667 93.75 24.1667C125 24.1667 156.25 12.0833 187.5 6.04167C218.75 0 250 0 281.25 6.04167C312.5 12.0833 343.75 24.1667 359.375 30.2083L375 36.25V58H359.375C343.75 58 312.5 58 281.25 58C250 58 218.75 58 187.5 58C156.25 58 125 58 93.75 58C62.5 58 31.25 58 15.625 58H0V0Z" fill="#FAF5E4" fill-opacity="0.48"/>
</svg>
