<svg width="1440" height="100" viewBox="0 0 1440 100" fill="none" xmlns="http://www.w3.org/2000/svg">
<path fill-rule="evenodd" clip-rule="evenodd" d="M1440 99.7888L1380 89.4763C1320 79.1638 1200 58.5388 1080 58.5388C960 58.5388 840 79.1638 720 89.4763C600 99.7888 480 99.7888 360 89.4763C240 79.1638 120 58.5388 60 48.2263L0 37.9138V0.788818H60C120 0.788818 240 0.788818 360 0.788818C480 0.788818 600 0.788818 720 0.788818C840 0.788818 960 0.788818 1080 0.788818C1200 0.788818 1320 0.788818 1380 0.788818H1440V99.7888Z" fill="#FAF5E4" fill-opacity="0.48"/>
</svg>
