<svg width="18" height="18" viewBox="0 0 18 18" fill="none" xmlns="http://www.w3.org/2000/svg">
<path d="M8.95958 12.1264L12.113 8.97197L8.95958 5.81756L8.29973 6.47837L10.3138 8.49243H5.60281V9.45151H10.3138L8.29973 11.4656L8.95958 12.1264ZM8.96245 17.6037C7.76872 17.6037 6.6466 17.3773 5.59609 16.9246C4.54558 16.4713 3.63158 15.8562 2.85409 15.0794C2.0766 14.3025 1.46119 13.3895 1.00787 12.3402C0.554543 11.291 0.327881 10.1692 0.327881 8.97485C0.327881 7.78048 0.554543 6.65835 1.00787 5.60848C1.46055 4.55797 2.07468 3.64397 2.85025 2.86648C3.62583 2.08899 4.53919 1.47358 5.59034 1.02026C6.64149 0.566933 7.76361 0.340271 8.9567 0.340271C10.1498 0.340271 11.2719 0.566933 12.3231 1.02026C13.3736 1.47294 14.2876 2.08739 15.0651 2.8636C15.8426 3.63982 16.458 4.55318 16.9113 5.60369C17.3646 6.6542 17.5913 7.776 17.5913 8.96909C17.5913 10.1622 17.3649 11.2843 16.9122 12.3355C16.4596 13.3866 15.8445 14.3006 15.067 15.0775C14.2895 15.8543 13.3764 16.4697 12.3279 16.9237C11.2793 17.3776 10.1575 17.6043 8.96245 17.6037ZM8.95958 16.6446C11.1015 16.6446 12.9158 15.9013 14.4023 14.4147C15.8889 12.9282 16.6322 11.1139 16.6322 8.97197C16.6322 6.83003 15.8889 5.01577 14.4023 3.5292C12.9158 2.04263 11.1015 1.29935 8.95958 1.29935C6.81764 1.29935 5.00338 2.04263 3.51681 3.5292C2.03024 5.01577 1.28696 6.83003 1.28696 8.97197C1.28696 11.1139 2.03024 12.9282 3.51681 14.4147C5.00338 15.9013 6.81764 16.6446 8.95958 16.6446Z" fill="white"/>
</svg>
