<svg width="18" height="19" viewBox="0 0 18 19" fill="none" xmlns="http://www.w3.org/2000/svg">
<rect x="0.18426" y="0.339778" width="17.6315" height="17.6315" rx="8.81574" fill="#6F5959"/>
<rect x="0.18426" y="0.339778" width="17.6315" height="17.6315" rx="8.81574" stroke="white" stroke-width="0.36852"/>
<path d="M12.1125 9.90549H3.75C3.5375 9.90549 3.3595 9.83349 3.216 9.68949C3.0725 9.54549 3.0005 9.36749 3 9.15549C2.9995 8.94349 3.0715 8.76549 3.216 8.62149C3.3605 8.47749 3.5385 8.40549 3.75 8.40549H12.1125L9.975 6.26799C9.825 6.11799 9.753 5.94299 9.759 5.74299C9.765 5.54299 9.837 5.36799 9.975 5.21799C10.125 5.06799 10.3033 4.98999 10.5098 4.98399C10.7163 4.97799 10.8943 5.04974 11.0438 5.19924L14.475 8.63049C14.55 8.70549 14.6033 8.78674 14.6348 8.87424C14.6663 8.96174 14.6818 9.05549 14.6813 9.15549C14.6808 9.25549 14.6653 9.34924 14.6348 9.43674C14.6043 9.52424 14.551 9.60549 14.475 9.68049L11.0438 13.1117C10.8938 13.2617 10.7158 13.3337 10.5098 13.3277C10.3038 13.3217 10.1255 13.2435 9.975 13.093C9.8375 12.943 9.7655 12.768 9.759 12.568C9.7525 12.368 9.8245 12.193 9.975 12.043L12.1125 9.90549Z" fill="white"/>
</svg>
