<?xml version="1.0" encoding="UTF-8"?>
<svg id="_レイヤー_2" xmlns="http://www.w3.org/2000/svg" version="1.1" viewBox="0 0 206.9 803.7">
  <!-- Generator: Adobe Illustrator 29.3.0, SVG Export Plug-In . SVG Version: 2.1.0 Build 146)  -->
  <defs>
    <style>
      .st0 {
        fill: #6f5959;
      }

      .st1 {
        fill: none;
        stroke: #fff;
      }
    </style>
  </defs>
  <g id="_レイヤー_1-2">
    <g>
      <path class="st0" d="M150.1,40.3h-11.6l-.6-2.2h14.1v-8.2l6.7.6c-.2,1.2-.9,1.8-2.8,2.1v5.5h7.4l2.9-3.6s3.3,2.7,5.3,4.6c-.2.8-.9,1.2-1.8,1.2h-13.8v3.9l.2-.2c15.4,4.2,12.8,14.2,8.2,11.3-1-3.5-4.9-7.6-8.3-10.1v21.1c0,.6-1.7,1.6-3.1,1.6h-.9v-21.7c-3.3,6.2-7.9,11.5-14,15.9l-.9-1.3c6-5.7,10.3-12.9,13.1-20.6h0ZM156.6,26.4c1.3-4.2,2.8-9.8,3.7-14.1l6.6,1.9c-.2.9-1.2,1.5-2.8,1.4-1.3,3.1-3.5,7.2-5.7,10.8h5.6l3-3.7s3.5,2.7,5.7,4.7c-.2.8-.9,1.2-2,1.2h-32.4l-.6-2.2h18.9ZM152.1,9.4V0l6.7.8c-.2,1-.9,1.7-2.8,2v6.7h6.3l3-3.8s3.6,2.7,5.9,5c-.2.8-.9,1.2-1.9,1.2h-30.1l-.6-2.3h13.5ZM144.3,12.5c10.4,7.5,6.1,15.6,2.7,12.1,0-3.7-2-8.5-3.7-11.6l1-.5ZM181.3,43.1h-3.9v3.4c0,.3-1.3,1.4-3.2,1.4h-.6V3.1l4.7,2h18.9l2.1-2.7,5,4c-.5.6-1.4,1-3,1.3v37.8c0,.3-1.6,1.3-3.4,1.3h-.6v-3.8h-3.9v19c0,.9,0,1,1.5,1h6.3c.6,0,.8,0,1-.8.4-1.1,1.1-5.3,1.6-9.3h1.1l.2,9.5c1.3.5,1.4.9,1.4,1.8,0,1.7-1.6,2.5-8.4,2.5h-4.1c-4,0-4.6-1.1-4.6-3.8v-20h-4.2c-1.3,14.2-6.9,20.8-22.2,24.9l-.4-1.3c13.2-5.1,17.3-11.5,18.3-23.7h0ZM197.6,17.1V7.3h-20.1v9.7h20.1ZM197.6,28.9v-9.7h-20.1v9.7h20.1ZM197.6,31.2h-20.1v9.6h20.1v-9.6Z"/>
      <path class="st0" d="M206,111.9c-.2.9-.9,1.3-2,1.3h-29.7v26.6c0,3.5-.9,6.1-8.6,6.8-.3-1.3-.9-2.3-2.1-2.9-1.6-.7-4.2-1.3-8.8-1.8v-1.3s11,.9,13.1.9,2.3-.6,2.3-2v-26.2h-31.4l-.6-2.2h32.1v-12.2l3.5.5c5.6-3.5,11.6-8.4,15.6-12.3h-43l-.6-2.1h44.8l3.2-3.1,5.3,4.9c-.6.6-1.6.7-3.3.8-5,3.7-12.8,8.7-20.1,12l1.4.2c-.2,1-.9,1.7-2.7,1.8v9.5h21.2l3.8-4.6,6.7,5.5h0Z"/>
      <path class="st0" d="M145.3,165c1.4,1.4,3.1,2,4.8,1.8.9,0,8.2-2,22.2-5.7,10.2-2.8,16-4.2,17.2-4.2,1.3-.2,2.8.2,4.1.9.9.4,1.3,1,1.3,1.8s-.9,1.8-2.8,2h-2.4c-1.9-.2-3.3-.2-4.4,0-4,.4-7.1,2.3-9.5,5.7-6.1,8.2-8.8,15.3-8.2,21.4.7,7.6,4.8,10.7,12.1,10.7s2.5-.2,4-.5c.8-.2,1.5-.2,2.1-.2,1.2,0,2.2.3,3.1,1,.9.6,1.3,1.3,1.3,1.8,0,1.6-2.4,2.3-7.4,2.3-11.8,0-18.2-4.8-18.9-14.4-.7-7.9,3.6-16.7,13-26.6-9.9,2.5-17.8,5.2-24,8-1.4.7-2.4,1.1-3.1,1.1-2.5.2-4.2-1.8-5.1-6l.7-1h0ZM185.5,169.1c5.3.5,9,2.4,10.9,5.7.6,1.4.2,2.3-1.2,2.6-.9.2-2-.4-3.1-1.9-1.7-2.4-4-4.2-6.9-5.5l.2-.9h0ZM202.3,168.9c.7,1.3.5,2.2-.8,2.7-.9.4-2,0-3.4-1.4-2.1-2-4.7-3.3-7.7-4v-1c5.3-.4,9.3.9,11.9,3.8h0Z"/>
      <path class="st0" d="M172.5,270.8c-4.9-1.9-10.3-3.6-16.1-5-.9,2-1.9,4-2.8,5.7-.9.4-2.7.2-4.3-.4,3.1-5.1,7.4-14.1,11.2-22.5h-21.5l-.7-2.3h23.2c2.2-5.3,4.2-10.1,5.2-13.4l6.3,1.3c-.2.9-1,1.6-2.9,1.6-.9,2.6-2.5,6.4-4.4,10.5h30.3l3.5-4.2s3.9,3.1,6.2,5.3c-.2.8-.9,1.2-1.9,1.2h-14.7c-2,8.8-4.9,15.7-9.8,21.1,24.6,8.1,23.6,17.6,18.2,15.6-4.1-3.9-11.3-8.6-21-12.8-8,7.1-20.1,11.1-38.8,13l-.2-1.4c16.3-2.5,27.5-6.4,35-13.2h0ZM144.3,239.5c-1.7,1.2-4.2,1.5-5,0-.7-1.3.2-2.8,1.6-3.7,3.1-1.6,5.7-6.3,5.3-11.6h1.3c.5,1.4.7,2.8.9,4h21.5v-10.9l6.8.7c-.2,1-1,1.7-2.7,2v8.2h23.8l3-3,5.2,5c-.6.6-1.4.7-2.8.8-1.9,2.6-5.2,6.2-7.9,8.3l-.9-.6c1-2.2,2.6-5.8,3.6-8.5h-49.5c0,4.6-2,7.7-4.1,9.2h0ZM175,268.3c4.6-5.1,7.6-11.6,9.3-19.8h-19.6c-2.4,5.2-4.9,10.9-7.4,15.7,6.8,1.3,12.7,2.7,17.8,4.1h0Z"/>
      <path class="st0" d="M143.4,345.9c-2,2.3-4.7,3.5-5.8,2.2-.9-1.2-.3-2.8.8-4.1,4.6-3.6,8.8-12.6,8.6-23h1.3c2.6,13.2-1.7,21.5-4.9,24.8h0ZM158.1,313.1l6.5.8c-.2.9-.9,1.6-2.5,2v39.6c0,1.7.6,2.4,4.7,2.4h10.1c4.8,0,8.3,0,9.7-.2,1.1-.2,1.5-.4,1.8-1.3.6-1.5,1.6-7,2.4-13.4h1.1v14c1.8.5,2.4,1,2.4,2,0,2.2-2.8,2.8-17.3,2.8h-10.5c-6.6,0-8.3-1.3-8.3-5.5v-43.1h0ZM159.2,297.9c26,6,23.8,17.7,18.8,15.1-2.7-3.9-9.4-9.8-19.2-13.8l.4-1.3h0ZM191.3,320.1c20.7,12,15.9,31.2,11,25.5-.4-6.6-3.3-17.8-11.8-24.7l.8-.9h0Z"/>
      <path class="st0" d="M195.2,409.7c-9.6,11.1-18.8,16.6-27.6,16.6s-12.6-6.5-13.2-19.3c-.2-2.1,0-7.9.4-17.4.2-4.5.2-6.9,0-7.2,0-3-1.3-5-3.6-6v-1.3c5.9.5,9,2.4,9,5.6,0,.4-.2,2.5-.9,6.2-1.1,7.6-1.6,14.5-1.5,20.9.6,9.6,3.9,14.5,10.3,14.5,6.5.2,15.1-4.2,25.5-13.3l1.5.7h0Z"/>
      <path class="st0" d="M145.5,448c1.3,1.4,3,2,4.8,1.8.9,0,8.2-2,22.1-5.7,10.2-2.8,16-4.2,17.3-4.2,1.3-.2,2.8.2,4.1.9.9.4,1.3,1,1.3,1.8s-.9,1.8-2.8,2h-2.4c-1.9-.2-3.3-.2-4.4,0-4,.4-7.2,2.3-9.7,5.7-6,8.2-8.6,15.3-8.2,21.4.9,7.5,4.8,10.7,12.2,10.7s2.5-.2,4-.5c.8-.2,1.4-.2,2-.2,1.2,0,2.2.3,3.1,1,.9.6,1.3,1.3,1.3,1.8,0,1.6-2.4,2.3-7.5,2.3-11.8,0-18.1-4.8-18.9-14.4-.8-7.9,3.5-16.7,13-26.6-9.9,2.5-17.9,5.2-24.1,8-1.4.7-2.4,1.1-3,1.1-2.6.2-4.3-1.8-5.2-6l.8-1h0Z"/>
      <path class="st0" d="M164.1,546.1h-25.5l-.6-2.1h31.8v-7l6.8.8c-.2,1-.9,1.7-2.7,2v4.2h21.9l3.6-4.4s3.9,3.1,6.4,5.3c-.2.8-.9,1.2-1.9,1.2h-27.6c7.1,7.4,19.6,13.5,30.5,16v.9c-1.9.2-3.5,1.5-3.9,3.4-11-3.7-22-10.9-28.5-20.3h-.5v20.8c0,.6-1.8,1.5-3.4,1.5h-.8v-21.9c-7.2,8.9-18.7,15.8-32,20l-.6-1.3c11-4.6,20.7-11.5,27-19.2h0ZM158.2,522.9l.5,1c-3.5,2.6-8.7,6.7-15.6,11.3,0,1-.4,1.7-1,2.1l-3.8-5c3.5-1.3,11.7-5.3,19.9-9.4h0ZM141.5,506c17.4,5.2,15.1,15.5,10.1,12.6-1.6-4-6.9-9.1-10.9-12l.7-.7h0ZM159.9,506.7l4.2,2h3.9c.6-2.5,1.4-6.1,1.8-8.6l7.1,1.4c-.3.9-1.3,1.6-2.8,1.6-1,1.6-2.5,3.8-3.8,5.6h8.8l2.4-2.6,5.5,4.2c-.6.6-1.8,1.2-3.1,1.5v23.8c0,.5-2.2,1.5-3.5,1.5h-.6v-3.1h-16v2.4c0,.4-1.6,1.3-3.2,1.3h-.7v-31h0ZM179.9,520.1v-9.1h-16v9.1h16ZM179.9,531.9v-9.6h-16v9.6h16ZM186.3,522.9c21.9,4.2,21.3,15.2,15.8,13.1-3-4.1-10.9-9.6-16.4-12.3l.6-.8ZM197.7,505.2l6.3,3.9c-.5.6-1.3.6-2.6.3-3.2,2.7-9.4,7-14,10.1l-1-1c3.9-4,8.7-9.8,11.3-13.3h0Z"/>
      <path class="st0" d="M195.2,614.1c-9.6,11.1-18.8,16.6-27.6,16.6s-12.6-6.5-13.2-19.3c-.2-2.1,0-7.9.4-17.4.2-4.5.2-6.9,0-7.2,0-3-1.3-5-3.6-6v-1.3c5.9.5,9,2.4,9,5.6,0,.4-.2,2.5-.9,6.2-1.1,7.6-1.6,14.5-1.5,20.9.6,9.6,3.9,14.5,10.3,14.5,6.5.2,15.1-4.2,25.5-13.3l1.5.7h0Z"/>
      <path class="st0" d="M179.6,650c0-1.7-1.2-3.2-3.6-4.6l1.2-.7c5.2.5,7.7,2.1,7.7,4.8s-.9,4.6-2.8,9.2c4.3.5,7.5,1.6,9.8,3.4,4.2,3,6.3,7.2,6.3,12.8s-2.4,10.6-7.1,14.3c-4.6,3.8-11.7,5.7-21.5,6l-.5-1.1c6.7-.9,12.1-2.7,16.4-5.3,5.3-3.1,7.9-7.8,7.9-13.8s-1.5-8.4-4.5-10.8c-1.6-1.5-4.1-2.6-7.6-3.3-2.4,5.9-5,10.6-7.9,14.2-2.9,3.5-4.3,5.3-4.2,5.3.2.2.4.4.8.6,1.3,1,2,1.9,2,2.7,0,1.4-.6,2-1.7,2s-1.3-.2-1.9-.8c-.9-.9-1.6-1.6-2-2.1-4.5,4.1-8.5,6.1-11.9,6.1s-3.1-.3-4.3-1.1c-2.1-1.4-3.2-3.8-3.2-7.1s2.4-9,7.1-13.4c1.7-1.7,3.2-2.9,4.6-3.8-1.6-7.3-3.2-11.7-5-13.4l.9-.9c3.8,1.3,6.4,5.4,7.7,12.5,5.1-2.3,10.3-3.5,15.6-3.5,1.3-3.8,2-6.4,2-8.2h0ZM155.6,686c2.4,0,5.5-1.8,9.1-5.4-2-3.3-3.9-8.2-5.7-14.6-5.2,3.8-7.9,9-8.3,15.2.2,3.2,1.7,4.8,4.9,4.8h0ZM167.3,677.5c.9-1,2.2-2.8,3.8-5.5,1.6-2.7,3.5-6.5,5.7-11.4-5.1,0-9.9,1-14.1,3.5.9,5,2.5,9.4,4.7,13.4h0Z"/>
      <path class="st0" d="M159.3,753.7c-.2-1.1,0-2.1.7-3.1,1-1.3,2.6-2.2,4.6-2.5,3.5-.7,6.8,0,9.9,2.2,1.8,1.3,3,2.8,3.5,4.4,1.7-.5,3.4-1.5,5-3,2.8-2.6,4.2-5.6,4.2-9s-1.6-6.3-4.6-8.2c-2.4-1.4-5.1-2.1-8.2-2.1-4.9,0-13.3,4-19.1,14.6-.7,1.3-1.5,2-2.4,2.2-1.1,0-1.8-.9-2-3.1-.2-1.3.2-2.4,1.2-3.4l8.1-9.7c2.6-3.1,7.1-8.7,13.5-16.8l2.9-3.8h0c-6.4,2.4-11,4.2-13.7,5.3-.9.3-1.6.5-2.1.5-2.4,0-3.9-2.1-4.6-6.5l1-.2c.9,1.3,2,2,3.5,2s6-.8,11.7-2.5c1.8-.5,3.1-1.1,3.8-1.8.2-.2.5-.3.9-.3.9-.2,2.1.2,3.4,1,1.1.8,1.7,1.5,1.9,2,.2.6,0,1.2-.8,1.7-1.3,1.2-7.8,8.4-19.6,21.7,4-3.5,8.6-5.3,13.6-5.3s8.6,1,11.5,3.2c3.4,2.4,5.1,5.7,5.1,9.4s-1.9,8.1-5.5,11.4c-4,3.5-8.2,5.3-12.6,5.5-4.6.3-8.5-.3-11.6-1.8-1.6-.9-2.6-2-3-3.2,0-.2-.2-.4-.2-.8h0ZM164.2,755.3c2.4,1.3,5.4,1.5,9,.9h.5c-.8-1.7-1.8-3.1-3.1-4.1-2.1-1.7-4.2-2.4-6.1-2-2,.4-2.9,1.3-2.6,2.8.2,1.1,1,1.8,2.3,2.4h0Z"/>
      <path class="st0" d="M23,321c0-3.6-1.9-5.3-5.4-5v-.9c6.9-2.3,10.4-1.4,10.2,2.4-.2.4-.2.9-.4,1.6-.3,2.2-.6,5-.9,8.5,2.6-.7,4.9-1.8,6.8-3.2,1-.5,1.7-.8,2.2-.7,1.2,0,2.2.5,3.1,1.4.4.4.6.6.6.9,0,1.6-4.2,3.3-12.8,5v.5c0,0,0,14.7,0,14.7,6.1-4,11.5-6,16.3-6s7,.9,9.4,2.7c5.2,4,5,11.3-1,15.8-2.6,1.8-5.7,2.8-9.4,2.8s-6.7-.5-9.9-1.3l.5-1.5c3.1.4,5.7.5,7.9.4,2.5-.2,4.8-.9,7-2.1,5.2-3.7,5-9.1,1.5-11.8-1.7-1.2-3.9-1.8-6.8-1.8-4.3,0-9.5,2-15.5,6v5.8c0,2.7-.5,4.5-1.6,5.6-2,2.5-3.8,2.9-5.5,1l-5.4-5.9c-2.8.8-5.7,1-8.7.7l-.9-1.9c5.6.6,11.9-1.5,18.8-6.3v-17.2c-1.7.2-3.5.3-5.3.2-4.1-.2-7.3-2-9.5-5.3l.5-1.4c2.5,2.3,5.6,3.5,9,3.8,1.9,0,3.7,0,5.4-.2v-7.1h0ZM17.5,356.6l3.5,2c.6.2,1-.2,1.3-1.5.4-1.5.6-3.4.8-5.7-2.3,1.7-4.6,3.1-7.1,3.9l1.6,1.3h0ZM53,328.5c3.7-.2,6.3.5,7.6,2,1.3,1.5,1.3,2.7,0,3.6-.7.5-1.8.5-3.1-.2-4.7-2.4-11.1-2-19.1,1.1l-1-.8c6.8-3.8,12-5.7,15.7-5.7h0Z"/>
      <path class="st0" d="M22,394.2c-.9-2.2-1.8-4-2.8-5.6-2.2-3.7-.7-6.1,4.5-7.2,2.1-.4,5.1-.2,8.9.5.6.2.9,0,.9-.6-1.3-2.4-4.5-4.2-9.7-5.6l.5-.9c5.3.2,9.2,1.1,11.9,2.8,1.9,1,2.9,2.3,3,3.7,0,1.1-.3,2-1.2,2.8-.5.3-1,.6-1.7.9-.3,0-1.7-.2-4.2-.8-2.5-.6-5-.8-7.5-.6-2.5.2-3.1,1.6-1.5,4.3.5,1.2,1.3,2.8,2.2,4.9,9.4-4.4,16.7-6.7,21.8-6.7s6.9,1,9.4,3.1c2.7,2.1,4.1,4.7,4.3,7.8.2,3.4-1.1,6.2-3.8,8.5-2.3,2.1-5.1,3.1-8.5,3.1-5.8-.2-10.8-2.9-15.2-8.3l.7-.9c4.9,4.1,9,6,12.5,6s4.3-.5,6.1-1.7c2.6-1.6,3.8-3.9,3.6-6.8-.2-2.6-1.3-4.6-3.4-6-1.8-1.3-3.9-1.9-6.5-1.9-4.6,0-11.2,2.4-19.7,7.1l4.7,9.9c3.6,7.8,6.1,13.1,7.5,16,.5,1.2.9,2.2.9,3.1.2,2.5-.6,3.8-2.2,3.8s-2-1.3-3-4.2c-4.2-12-7.9-21-10.9-27h-.4c-3,2-5.5,3.5-7.5,4.9-1,.6-1.9.9-2.8.9-2,0-4.2-1.4-6.2-4.3l.4-1.3c1.6.7,2.8,1,3.7,1,1.3,0,3.8-.9,7.5-2.9l3.5-1.7h0Z"/>
      <path class="st0" d="M5.7,452.1c2,1.4,3.5,2.1,4.4,2.1,1.8.2,3.5-.2,5.3-1.3,11.7-7.6,20.4-11.4,26.3-11.4s9.1,1.2,12,3.5c3.5,2.8,5.3,6.5,5.3,10.9,0,6.3-3.1,11.5-9.6,15.4-5.7,3.5-13.6,5.4-23.7,5.8l-.6-1.3c19.4-2.8,29.1-9.5,29.1-20s-1.3-6.7-3.8-8.7c-2.3-1.8-5.1-2.8-8.6-2.8-6.7,0-15.7,4.8-27.2,14.2-.9.5-1.7.8-2.4.8-2.4,0-4.6-2.1-6.8-6.3l.4-.9h0Z"/>
      <path class="st0" d="M27.7,494.6c-.2-1.3-1.3-2.4-3.5-3.3l.3-.7c1.6-.2,2.6-.3,3-.3,3.2,0,5,.9,5.1,2.4,0,1.1-1,4.1-3.4,9,1.9-.2,3.2-.7,4-1.3,1.3-.7,2.2-1,2.8-.9.9,0,1.7.3,2.4.9.7.3,1,.8,1,1.3s-.7,1.4-2,2c-3,.9-6.3,1.5-10,1.6l-6.4,10.2c1.6-1.3,3.5-2,5.4-2,3.5,0,5.4,2.5,5.7,7.4,6-3.6,11.4-6.6,16.1-9,1-.6,1.5-1.3,1.5-1.8s-.7-1.4-2.1-2.1l.8-.5c4.7,1,7,2.6,6.9,4.8,0,.7-.9,1.4-2.9,2.1-6.9,3.1-13.5,6.4-20,9.7,0,2,.2,4,.2,5.9s-.3,2.2-.9,3c-.7.9-1.4,1.3-2.2,1.3-1.3,0-1.9-1.2-1.7-3.5.2-1.7.2-3,.2-3.9-3.7,3-5.5,5.8-5.5,8.7s3.5,3.9,10.3,3.3c3.7-.2,6.9-.8,9.7-1.7.8-.3,1.4-.5,1.9-.5.9,0,1.5.2,2,.5,1,.9,1.6,1.7,1.6,2.4,0,1.8-4.2,2.8-12.7,3.1-10.6.2-16-2.1-16-7.1s3-8.1,8.8-12.5c0-4.9-.8-7.3-2.4-7.4-2.2-.2-4.8,2.1-7.9,6.9-.6,1-1.2,1.6-1.6,1.6s-1-.2-1.3-.6c-.9-.7-1.3-1.7-1.4-2.9-.2-.7.9-2.2,2.8-4.4,3.2-3.8,5.7-7.5,7.4-11.3-.5,0-.9,0-1.3,0-4.7-.5-8.2-3.1-10.4-7.9l1-.6c1.9,3.1,4.9,4.9,9.2,5.3,1.1,0,2.1.2,2.9.2,1.9-3.8,2.8-6.3,2.8-7.5h0Z"/>
      <path class="st0" d="M10.7,612.8v-22.2H.9l-.5-2.1h9.4l2.5-3.5,5.7,5c-.5.5-1.6,1.1-3.5,1.4v20.4c5.4,6.1,11.4,7.1,24.2,7.1s21.2,0,30.3-.2v1c-1.9.3-3.1,1.4-3.3,3.4h-27c-13.7,0-19.9-1.7-25.3-9.8-2.7,3.1-6.8,7.3-9.5,9.7.2.9,0,1.3-.6,1.7L0,619.3c2.6-1.3,6.8-3.9,10.7-6.5h0ZM2.4,559c17,6.5,13.6,17.8,8.6,14.3-.9-4.6-5.6-10.4-9.5-13.8,0,0,.9-.5.9-.5ZM32.5,599.5v-9h-10.6l-.5-2.1h11.2v-6.9l5.7.6c0,.9-.6,1.4-1.7,1.7v4.6h11.6v-6.9l5.7.6c-.2.9-.7,1.4-1.8,1.7v4.6h4.5l2.9-3.7s3.5,2.7,5.6,4.7c-.2.8-1,1.1-1.9,1.1h-11.1v9h7.3l3.2-3.9s3.6,2.8,5.9,5c-.2.8-.9,1.2-1.9,1.2H18.9l-.5-2.2h14.2ZM34.7,602.9l5.8,2.9c-.5.8-1.6,1-3.3.7-3.6,3.2-10.6,7.2-17.1,9.1l-.7-1.2c6-2.8,12.4-7.9,15.3-11.5h0ZM34.7,560l2.1-2.2,4.9,3.7c-.4.5-1.4.9-2.6,1.2v8.4c0,.5-2,1.4-3.2,1.4h-.6v-2.4h-10.5v6.2c0,.8.2.9,2,.9h5.1c2.2,0,4.2,0,4.8,0,.5,0,.8,0,1-.4.5-.5.9-2.2,1.4-3.8h.9l.2,3.8c1.3.3,1.7.7,1.7,1.5,0,1.6-1.7,2-10.1,2h-5.7c-4.4,0-5-.9-5-3.4v-11.1l4.6,2.1h9.5v-5.7h-14.4l-.6-2.2h14.5,0ZM48.2,590.4h-11.6v9h11.6v-9ZM44,560h14.9l2.1-2.2,4.9,3.7c-.4.5-1.4.9-2.6,1.2v8.4c0,.5-2,1.4-3.3,1.4h-.5v-2.4h-10.8v6.2c0,.8.2.9,2.3.9h5.4c2.4,0,4.5,0,5.2,0,.5,0,.8,0,1.1-.4.5-.7.9-2.5,1.4-4.3h.9l.2,4.2c1.3.4,1.7.8,1.7,1.6,0,1.6-1.8,2-10.6,2h-6.1c-4.3,0-5-.9-5-3.4v-11.1l4.5,2.1h9.8v-5.7h-14.8l-.6-2.2h0ZM46.2,603.8c25.1,5.5,18,15.1,13.8,11.2-2.4-3.2-7.3-6.9-14.2-10l.5-1.3h0Z"/>
      <path class="st0" d="M12.2,643.7c1.6,1.4,2.9,2.1,4.1,2.1s3.5-.5,7.4-1.3c2.5-.4,4.2-1.3,5-2.5.7-.6,1.3-.9,1.8-.9.7,0,1.7.4,3,1.3.8.7,1.3,1.3,1.3,1.8,0,.5-.7,1.2-1.8,2.2-10.9,10-16.7,18.8-17.4,26.4-.3,4,.7,7.1,3.1,9.3,2.3,2.1,5,3.1,8.4,3.1s7.4-1.8,11.2-5.5c3.7-4,6.2-9.5,7.5-16.4.9-5,1.2-11,.6-18,0-.9-.4-2-.8-3.1-.3-.8-.5-1.3-.4-1.7,0-.9,1.3-1.3,3.4-1.3,1.3.5,1.9,1.7,1.8,3.3.3,4.2,1.7,10,4.4,17.3,1.2,3.8,3,7.3,5.4,10.5,0,0,.2,0,.3.2.2.2.4.5.4.5.9,1.3,1.2,2.6.8,3.8-.7,1.8-1.6,2.6-2.7,2.4-.7,0-1.7-1.3-2.9-3.8-2.5-4.9-4.7-12.1-6.6-21.7.2,4.2,0,8.7-1,13.8-1.3,7.4-4.1,13.1-8.1,17.2-4.5,4.2-9,6.5-13.4,6.8-4.2.2-7.8-1.1-10.6-3.6-3.1-3.1-4.5-7-4.1-12,.4-5.1,2.7-10.7,6.8-16.7,2.4-3.5,5-6.9,7.9-10.5-3.9.5-6.7,1.7-8.7,3.2-.9.6-1.5.9-2,.9-.7,0-1.3-.3-1.9-1-1.1-1.2-2-3.1-2.9-5.6l.6-.5h0ZM52.5,636.9c5.3.5,9,2.4,10.9,5.7.6,1.4.2,2.3-1.2,2.6-.9.2-2-.4-3.1-1.9-1.7-2.4-4-4.2-6.9-5.5l.2-.9h0ZM69.3,636.8c.7,1.3.5,2.1-.8,2.7-.9.4-2,0-3.4-1.4-2.1-2-4.7-3.3-7.7-4.1v-.9c5.3-.5,9.3.8,11.9,3.8h0Z"/>
      <path class="st0" d="M27.8,707.1c0-1.4-.9-3-2.7-4.7l.8-.4c4.7,1.2,7,2.6,7,4.2s-.2,1.3-.5,1.7c-.4.9-1.1,2.4-2,4.9-.2.6-.5,1.4-.9,2.4l-.3.8c1.2-.3,2.4-.9,3.7-1.8,1-.5,1.8-.9,2.4-.9,1.1,0,2.2.3,3.1,1,.4.4.5.7.5,1.2,0,1.7-3.8,3.1-11.2,4.3-4.9,12.3-9.4,22.5-13.5,30.4-1,2-1.9,3.1-2.5,3.1s-.9-.3-1.4-.8c-.6-.8-.9-1.6-.9-2.4s.6-2.4,1.6-4c4.2-6.2,8.4-14.8,12.7-25.9-3.7.2-6,.3-6.7.3-4,0-6.9-1.8-8.8-5.3l.4-1.1c2.4,2.3,5.3,3.4,8.5,3.4s4-.2,8-.5c1.8-5.3,2.7-8.7,2.7-9.8h0ZM38.4,737.8c-3,6.2-.9,9.8,6.2,11,1.9.2,4.4.3,7.5.3,1.6,0,2.5.2,2.9.2,1.1.2,2,.5,2.7,1.1.9.7,1.3,1.3,1.3,2-.4,1.6-4.2,1.9-11.5.8-11.7-1.7-15.3-6.6-10.8-14.9l1.9-.5h0ZM57.8,719.9c6.8,5.9-2.3,9.8-9.9,10.7l-.4-1c3.8-1.1,6.2-2.4,7.2-3.8,1-1.4.7-3-.9-4.6-1.4-1.6-4.6-2.4-9.6-2.5l-.2-1.3c5.6-1.2,10.1-.4,13.8,2.4h0Z"/>
      <path class="st0" d="M31.4,785.7c-4.3,5.6-6.9,10.4-7.7,14.3-.9,4-2.7,4.7-5.4,2.1-2.4-2.3-3.9-5.3-4.8-9-.8-3.2-1.2-8.3-1.3-15.2,0-2.4-.2-4.2-.5-5.3-.4-1.1-1.1-2-2.3-2.6v-1.1c4.9.2,7.3,1.9,7.3,5s0,1.3-.3,2.3c-.6,2.8-.9,5.6-.9,8.4,0,5.9,1.1,10.2,3.3,13,2,2,4.9-5.5,11.4-12.7l1.2.9h0ZM56.3,781c2.3,3.1,3.5,5.8,3.5,8.3,0,2.4-.8,3.6-2.6,3.6s-1.8-.9-2.2-2.9c0-6-4.7-13.4-13.3-11.2v-1.2c5.7-2.1,10.6-1,14.6,3.4h0Z"/>
    </g>
    <g>
      <path class="st1" d="M150.1,40.3h-11.6l-.6-2.2h14.1v-8.2l6.7.6c-.2,1.2-.9,1.8-2.8,2.1v5.5h7.4l2.9-3.6s3.3,2.7,5.3,4.6c-.2.8-.9,1.2-1.8,1.2h-13.8v3.9l.2-.2c15.4,4.2,12.8,14.2,8.2,11.3-1-3.5-4.9-7.6-8.3-10.1v21.1c0,.6-1.7,1.6-3.1,1.6h-.9v-21.7c-3.3,6.2-7.9,11.5-14,15.9l-.9-1.3c6-5.7,10.3-12.9,13.1-20.6h0ZM156.6,26.4c1.3-4.2,2.8-9.8,3.7-14.1l6.6,1.9c-.2.9-1.2,1.5-2.8,1.4-1.3,3.1-3.5,7.2-5.7,10.8h5.6l3-3.7s3.5,2.7,5.7,4.7c-.2.8-.9,1.2-2,1.2h-32.4l-.6-2.2h18.9ZM152.1,9.4V0l6.7.8c-.2,1-.9,1.7-2.8,2v6.7h6.3l3-3.8s3.6,2.7,5.9,5c-.2.8-.9,1.2-1.9,1.2h-30.1l-.6-2.3h13.5ZM144.3,12.5c10.4,7.5,6.1,15.6,2.7,12.1,0-3.7-2-8.5-3.7-11.6l1-.5ZM181.3,43.1h-3.9v3.4c0,.3-1.3,1.4-3.2,1.4h-.6V3.1l4.7,2h18.9l2.1-2.7,5,4c-.5.6-1.4,1-3,1.3v37.8c0,.3-1.6,1.3-3.4,1.3h-.6v-3.8h-3.9v19c0,.9,0,1,1.5,1h6.3c.6,0,.8,0,1-.8.4-1.1,1.1-5.3,1.6-9.3h1.1l.2,9.5c1.3.5,1.4.9,1.4,1.8,0,1.7-1.6,2.5-8.4,2.5h-4.1c-4,0-4.6-1.1-4.6-3.8v-20h-4.2c-1.3,14.2-6.9,20.8-22.2,24.9l-.4-1.3c13.2-5.1,17.3-11.5,18.3-23.7h0ZM197.6,17.1V7.3h-20.1v9.7h20.1ZM197.6,28.9v-9.7h-20.1v9.7h20.1ZM197.6,31.2h-20.1v9.6h20.1v-9.6Z"/>
      <path class="st1" d="M206,111.9c-.2.9-.9,1.3-2,1.3h-29.7v26.6c0,3.5-.9,6.1-8.6,6.8-.3-1.3-.9-2.3-2.1-2.9-1.6-.7-4.2-1.3-8.8-1.8v-1.3s11,.9,13.1.9,2.3-.6,2.3-2v-26.2h-31.4l-.6-2.2h32.1v-12.2l3.5.5c5.6-3.5,11.6-8.4,15.6-12.3h-43l-.6-2.1h44.8l3.2-3.1,5.3,4.9c-.6.6-1.6.7-3.3.8-5,3.7-12.8,8.7-20.1,12l1.4.2c-.2,1-.9,1.7-2.7,1.8v9.5h21.2l3.8-4.6,6.7,5.5h0Z"/>
      <path class="st1" d="M145.3,165c1.4,1.4,3.1,2,4.8,1.8.9,0,8.2-2,22.2-5.7,10.2-2.8,16-4.2,17.2-4.2,1.3-.2,2.8.2,4.1.9.9.4,1.3,1,1.3,1.8s-.9,1.8-2.8,2h-2.4c-1.9-.2-3.3-.2-4.4,0-4,.4-7.1,2.3-9.5,5.7-6.1,8.2-8.8,15.3-8.2,21.4.7,7.6,4.8,10.7,12.1,10.7s2.5-.2,4-.5c.8-.2,1.5-.2,2.1-.2,1.2,0,2.2.3,3.1,1,.9.6,1.3,1.3,1.3,1.8,0,1.6-2.4,2.3-7.4,2.3-11.8,0-18.2-4.8-18.9-14.4-.7-7.9,3.6-16.7,13-26.6-9.9,2.5-17.8,5.2-24,8-1.4.7-2.4,1.1-3.1,1.1-2.5.2-4.2-1.8-5.1-6l.7-1h0ZM185.5,169.1c5.3.5,9,2.4,10.9,5.7.6,1.4.2,2.3-1.2,2.6-.9.2-2-.4-3.1-1.9-1.7-2.4-4-4.2-6.9-5.5l.2-.9h0ZM202.3,168.9c.7,1.3.5,2.2-.8,2.7-.9.4-2,0-3.4-1.4-2.1-2-4.7-3.3-7.7-4v-1c5.3-.4,9.3.9,11.9,3.8h0Z"/>
      <path class="st1" d="M172.5,270.8c-4.9-1.9-10.3-3.6-16.1-5-.9,2-1.9,4-2.8,5.7-.9.4-2.7.2-4.3-.4,3.1-5.1,7.4-14.1,11.2-22.5h-21.5l-.7-2.3h23.2c2.2-5.3,4.2-10.1,5.2-13.4l6.3,1.3c-.2.9-1,1.6-2.9,1.6-.9,2.6-2.5,6.4-4.4,10.5h30.3l3.5-4.2s3.9,3.1,6.2,5.3c-.2.8-.9,1.2-1.9,1.2h-14.7c-2,8.8-4.9,15.7-9.8,21.1,24.6,8.1,23.6,17.6,18.2,15.6-4.1-3.9-11.3-8.6-21-12.8-8,7.1-20.1,11.1-38.8,13l-.2-1.4c16.3-2.5,27.5-6.4,35-13.2h0ZM144.3,239.5c-1.7,1.2-4.2,1.5-5,0-.7-1.3.2-2.8,1.6-3.7,3.1-1.6,5.7-6.3,5.3-11.6h1.3c.5,1.4.7,2.8.9,4h21.5v-10.9l6.8.7c-.2,1-1,1.7-2.7,2v8.2h23.8l3-3,5.2,5c-.6.6-1.4.7-2.8.8-1.9,2.6-5.2,6.2-7.9,8.3l-.9-.6c1-2.2,2.6-5.8,3.6-8.5h-49.5c0,4.6-2,7.7-4.1,9.2h0ZM175,268.3c4.6-5.1,7.6-11.6,9.3-19.8h-19.6c-2.4,5.2-4.9,10.9-7.4,15.7,6.8,1.3,12.7,2.7,17.8,4.1h0Z"/>
      <path class="st1" d="M143.4,345.9c-2,2.3-4.7,3.5-5.8,2.2-.9-1.2-.3-2.8.8-4.1,4.6-3.6,8.8-12.6,8.6-23h1.3c2.6,13.2-1.7,21.5-4.9,24.8h0ZM158.1,313.1l6.5.8c-.2.9-.9,1.6-2.5,2v39.6c0,1.7.6,2.4,4.7,2.4h10.1c4.8,0,8.3,0,9.7-.2,1.1-.2,1.5-.4,1.8-1.3.6-1.5,1.6-7,2.4-13.4h1.1v14c1.8.5,2.4,1,2.4,2,0,2.2-2.8,2.8-17.3,2.8h-10.5c-6.6,0-8.3-1.3-8.3-5.5v-43.1h0ZM159.2,297.9c26,6,23.8,17.7,18.8,15.1-2.7-3.9-9.4-9.8-19.2-13.8l.4-1.3h0ZM191.3,320.1c20.7,12,15.9,31.2,11,25.5-.4-6.6-3.3-17.8-11.8-24.7l.8-.9h0Z"/>
      <path class="st1" d="M195.2,409.7c-9.6,11.1-18.8,16.6-27.6,16.6s-12.6-6.5-13.2-19.3c-.2-2.1,0-7.9.4-17.4.2-4.5.2-6.9,0-7.2,0-3-1.3-5-3.6-6v-1.3c5.9.5,9,2.4,9,5.6,0,.4-.2,2.5-.9,6.2-1.1,7.6-1.6,14.5-1.5,20.9.6,9.6,3.9,14.5,10.3,14.5,6.5.2,15.1-4.2,25.5-13.3l1.5.7h0Z"/>
      <path class="st1" d="M145.5,448c1.3,1.4,3,2,4.8,1.8.9,0,8.2-2,22.1-5.7,10.2-2.8,16-4.2,17.3-4.2,1.3-.2,2.8.2,4.1.9.9.4,1.3,1,1.3,1.8s-.9,1.8-2.8,2h-2.4c-1.9-.2-3.3-.2-4.4,0-4,.4-7.2,2.3-9.7,5.7-6,8.2-8.6,15.3-8.2,21.4.9,7.5,4.8,10.7,12.2,10.7s2.5-.2,4-.5c.8-.2,1.4-.2,2-.2,1.2,0,2.2.3,3.1,1,.9.6,1.3,1.3,1.3,1.8,0,1.6-2.4,2.3-7.5,2.3-11.8,0-18.1-4.8-18.9-14.4-.8-7.9,3.5-16.7,13-26.6-9.9,2.5-17.9,5.2-24.1,8-1.4.7-2.4,1.1-3,1.1-2.6.2-4.3-1.8-5.2-6l.8-1h0Z"/>
      <path class="st1" d="M164.1,546.1h-25.5l-.6-2.1h31.8v-7l6.8.8c-.2,1-.9,1.7-2.7,2v4.2h21.9l3.6-4.4s3.9,3.1,6.4,5.3c-.2.8-.9,1.2-1.9,1.2h-27.6c7.1,7.4,19.6,13.5,30.5,16v.9c-1.9.2-3.5,1.5-3.9,3.4-11-3.7-22-10.9-28.5-20.3h-.5v20.8c0,.6-1.8,1.5-3.4,1.5h-.8v-21.9c-7.2,8.9-18.7,15.8-32,20l-.6-1.3c11-4.6,20.7-11.5,27-19.2h0ZM158.2,522.9l.5,1c-3.5,2.6-8.7,6.7-15.6,11.3,0,1-.4,1.7-1,2.1l-3.8-5c3.5-1.3,11.7-5.3,19.9-9.4h0ZM141.5,506c17.4,5.2,15.1,15.5,10.1,12.6-1.6-4-6.9-9.1-10.9-12l.7-.7h0ZM159.9,506.7l4.2,2h3.9c.6-2.5,1.4-6.1,1.8-8.6l7.1,1.4c-.3.9-1.3,1.6-2.8,1.6-1,1.6-2.5,3.8-3.8,5.6h8.8l2.4-2.6,5.5,4.2c-.6.6-1.8,1.2-3.1,1.5v23.8c0,.5-2.2,1.5-3.5,1.5h-.6v-3.1h-16v2.4c0,.4-1.6,1.3-3.2,1.3h-.7v-31h0ZM179.9,520.1v-9.1h-16v9.1h16ZM179.9,531.9v-9.6h-16v9.6h16ZM186.3,522.9c21.9,4.2,21.3,15.2,15.8,13.1-3-4.1-10.9-9.6-16.4-12.3l.6-.8ZM197.7,505.2l6.3,3.9c-.5.6-1.3.6-2.6.3-3.2,2.7-9.4,7-14,10.1l-1-1c3.9-4,8.7-9.8,11.3-13.3h0Z"/>
      <path class="st1" d="M195.2,614.1c-9.6,11.1-18.8,16.6-27.6,16.6s-12.6-6.5-13.2-19.3c-.2-2.1,0-7.9.4-17.4.2-4.5.2-6.9,0-7.2,0-3-1.3-5-3.6-6v-1.3c5.9.5,9,2.4,9,5.6,0,.4-.2,2.5-.9,6.2-1.1,7.6-1.6,14.5-1.5,20.9.6,9.6,3.9,14.5,10.3,14.5,6.5.2,15.1-4.2,25.5-13.3l1.5.7h0Z"/>
      <path class="st1" d="M179.6,650c0-1.7-1.2-3.2-3.6-4.6l1.2-.7c5.2.5,7.7,2.1,7.7,4.8s-.9,4.6-2.8,9.2c4.3.5,7.5,1.6,9.8,3.4,4.2,3,6.3,7.2,6.3,12.8s-2.4,10.6-7.1,14.3c-4.6,3.8-11.7,5.7-21.5,6l-.5-1.1c6.7-.9,12.1-2.7,16.4-5.3,5.3-3.1,7.9-7.8,7.9-13.8s-1.5-8.4-4.5-10.8c-1.6-1.5-4.1-2.6-7.6-3.3-2.4,5.9-5,10.6-7.9,14.2-2.9,3.5-4.3,5.3-4.2,5.3.2.2.4.4.8.6,1.3,1,2,1.9,2,2.7,0,1.4-.6,2-1.7,2s-1.3-.2-1.9-.8c-.9-.9-1.6-1.6-2-2.1-4.5,4.1-8.5,6.1-11.9,6.1s-3.1-.3-4.3-1.1c-2.1-1.4-3.2-3.8-3.2-7.1s2.4-9,7.1-13.4c1.7-1.7,3.2-2.9,4.6-3.8-1.6-7.3-3.2-11.7-5-13.4l.9-.9c3.8,1.3,6.4,5.4,7.7,12.5,5.1-2.3,10.3-3.5,15.6-3.5,1.3-3.8,2-6.4,2-8.2h0ZM155.6,686c2.4,0,5.5-1.8,9.1-5.4-2-3.3-3.9-8.2-5.7-14.6-5.2,3.8-7.9,9-8.3,15.2.2,3.2,1.7,4.8,4.9,4.8h0ZM167.3,677.5c.9-1,2.2-2.8,3.8-5.5,1.6-2.7,3.5-6.5,5.7-11.4-5.1,0-9.9,1-14.1,3.5.9,5,2.5,9.4,4.7,13.4h0Z"/>
      <path class="st1" d="M159.3,753.7c-.2-1.1,0-2.1.7-3.1,1-1.3,2.6-2.2,4.6-2.5,3.5-.7,6.8,0,9.9,2.2,1.8,1.3,3,2.8,3.5,4.4,1.7-.5,3.4-1.5,5-3,2.8-2.6,4.2-5.6,4.2-9s-1.6-6.3-4.6-8.2c-2.4-1.4-5.1-2.1-8.2-2.1-4.9,0-13.3,4-19.1,14.6-.7,1.3-1.5,2-2.4,2.2-1.1,0-1.8-.9-2-3.1-.2-1.3.2-2.4,1.2-3.4l8.1-9.7c2.6-3.1,7.1-8.7,13.5-16.8l2.9-3.8h0c-6.4,2.4-11,4.2-13.7,5.3-.9.3-1.6.5-2.1.5-2.4,0-3.9-2.1-4.6-6.5l1-.2c.9,1.3,2,2,3.5,2s6-.8,11.7-2.5c1.8-.5,3.1-1.1,3.8-1.8.2-.2.5-.3.9-.3.9-.2,2.1.2,3.4,1,1.1.8,1.7,1.5,1.9,2,.2.6,0,1.2-.8,1.7-1.3,1.2-7.8,8.4-19.6,21.7,4-3.5,8.6-5.3,13.6-5.3s8.6,1,11.5,3.2c3.4,2.4,5.1,5.7,5.1,9.4s-1.9,8.1-5.5,11.4c-4,3.5-8.2,5.3-12.6,5.5-4.6.3-8.5-.3-11.6-1.8-1.6-.9-2.6-2-3-3.2,0-.2-.2-.4-.2-.8h0ZM164.2,755.3c2.4,1.3,5.4,1.5,9,.9h.5c-.8-1.7-1.8-3.1-3.1-4.1-2.1-1.7-4.2-2.4-6.1-2-2,.4-2.9,1.3-2.6,2.8.2,1.1,1,1.8,2.3,2.4h0Z"/>
      <path class="st1" d="M23,321c0-3.6-1.9-5.3-5.4-5v-.9c6.9-2.3,10.4-1.4,10.2,2.4-.2.4-.2.9-.4,1.6-.3,2.2-.6,5-.9,8.5,2.6-.7,4.9-1.8,6.8-3.2,1-.5,1.7-.8,2.2-.7,1.2,0,2.2.5,3.1,1.4.4.4.6.6.6.9,0,1.6-4.2,3.3-12.8,5v.5c0,0,0,14.7,0,14.7,6.1-4,11.5-6,16.3-6s7,.9,9.4,2.7c5.2,4,5,11.3-1,15.8-2.6,1.8-5.7,2.8-9.4,2.8s-6.7-.5-9.9-1.3l.5-1.5c3.1.4,5.7.5,7.9.4,2.5-.2,4.8-.9,7-2.1,5.2-3.7,5-9.1,1.5-11.8-1.7-1.2-3.9-1.8-6.8-1.8-4.3,0-9.5,2-15.5,6v5.8c0,2.7-.5,4.5-1.6,5.6-2,2.5-3.8,2.9-5.5,1l-5.4-5.9c-2.8.8-5.7,1-8.7.7l-.9-1.9c5.6.6,11.9-1.5,18.8-6.3v-17.2c-1.7.2-3.5.3-5.3.2-4.1-.2-7.3-2-9.5-5.3l.5-1.4c2.5,2.3,5.6,3.5,9,3.8,1.9,0,3.7,0,5.4-.2v-7.1h0ZM17.5,356.6l3.5,2c.6.2,1-.2,1.3-1.5.4-1.5.6-3.4.8-5.7-2.3,1.7-4.6,3.1-7.1,3.9l1.6,1.3h0ZM53,328.5c3.7-.2,6.3.5,7.6,2,1.3,1.5,1.3,2.7,0,3.6-.7.5-1.8.5-3.1-.2-4.7-2.4-11.1-2-19.1,1.1l-1-.8c6.8-3.8,12-5.7,15.7-5.7h0Z"/>
      <path class="st1" d="M22,394.2c-.9-2.2-1.8-4-2.8-5.6-2.2-3.7-.7-6.1,4.5-7.2,2.1-.4,5.1-.2,8.9.5.6.2.9,0,.9-.6-1.3-2.4-4.5-4.2-9.7-5.6l.5-.9c5.3.2,9.2,1.1,11.9,2.8,1.9,1,2.9,2.3,3,3.7,0,1.1-.3,2-1.2,2.8-.5.3-1,.6-1.7.9-.3,0-1.7-.2-4.2-.8-2.5-.6-5-.8-7.5-.6-2.5.2-3.1,1.6-1.5,4.3.5,1.2,1.3,2.8,2.2,4.9,9.4-4.4,16.7-6.7,21.8-6.7s6.9,1,9.4,3.1c2.7,2.1,4.1,4.7,4.3,7.8.2,3.4-1.1,6.2-3.8,8.5-2.3,2.1-5.1,3.1-8.5,3.1-5.8-.2-10.8-2.9-15.2-8.3l.7-.9c4.9,4.1,9,6,12.5,6s4.3-.5,6.1-1.7c2.6-1.6,3.8-3.9,3.6-6.8-.2-2.6-1.3-4.6-3.4-6-1.8-1.3-3.9-1.9-6.5-1.9-4.6,0-11.2,2.4-19.7,7.1l4.7,9.9c3.6,7.8,6.1,13.1,7.5,16,.5,1.2.9,2.2.9,3.1.2,2.5-.6,3.8-2.2,3.8s-2-1.3-3-4.2c-4.2-12-7.9-21-10.9-27h-.4c-3,2-5.5,3.5-7.5,4.9-1,.6-1.9.9-2.8.9-2,0-4.2-1.4-6.2-4.3l.4-1.3c1.6.7,2.8,1,3.7,1,1.3,0,3.8-.9,7.5-2.9l3.5-1.7h0Z"/>
      <path class="st1" d="M5.7,452.1c2,1.4,3.5,2.1,4.4,2.1,1.8.2,3.5-.2,5.3-1.3,11.7-7.6,20.4-11.4,26.3-11.4s9.1,1.2,12,3.5c3.5,2.8,5.3,6.5,5.3,10.9,0,6.3-3.1,11.5-9.6,15.4-5.7,3.5-13.6,5.4-23.7,5.8l-.6-1.3c19.4-2.8,29.1-9.5,29.1-20s-1.3-6.7-3.8-8.7c-2.3-1.8-5.1-2.8-8.6-2.8-6.7,0-15.7,4.8-27.2,14.2-.9.5-1.7.8-2.4.8-2.4,0-4.6-2.1-6.8-6.3l.4-.9h0Z"/>
      <path class="st1" d="M27.7,494.6c-.2-1.3-1.3-2.4-3.5-3.3l.3-.7c1.6-.2,2.6-.3,3-.3,3.2,0,5,.9,5.1,2.4,0,1.1-1,4.1-3.4,9,1.9-.2,3.2-.7,4-1.3,1.3-.7,2.2-1,2.8-.9.9,0,1.7.3,2.4.9.7.3,1,.8,1,1.3s-.7,1.4-2,2c-3,.9-6.3,1.5-10,1.6l-6.4,10.2c1.6-1.3,3.5-2,5.4-2,3.5,0,5.4,2.5,5.7,7.4,6-3.6,11.4-6.6,16.1-9,1-.6,1.5-1.3,1.5-1.8s-.7-1.4-2.1-2.1l.8-.5c4.7,1,7,2.6,6.9,4.8,0,.7-.9,1.4-2.9,2.1-6.9,3.1-13.5,6.4-20,9.7,0,2,.2,4,.2,5.9s-.3,2.2-.9,3c-.7.9-1.4,1.3-2.2,1.3-1.3,0-1.9-1.2-1.7-3.5.2-1.7.2-3,.2-3.9-3.7,3-5.5,5.8-5.5,8.7s3.5,3.9,10.3,3.3c3.7-.2,6.9-.8,9.7-1.7.8-.3,1.4-.5,1.9-.5.9,0,1.5.2,2,.5,1,.9,1.6,1.7,1.6,2.4,0,1.8-4.2,2.8-12.7,3.1-10.6.2-16-2.1-16-7.1s3-8.1,8.8-12.5c0-4.9-.8-7.3-2.4-7.4-2.2-.2-4.8,2.1-7.9,6.9-.6,1-1.2,1.6-1.6,1.6s-1-.2-1.3-.6c-.9-.7-1.3-1.7-1.4-2.9-.2-.7.9-2.2,2.8-4.4,3.2-3.8,5.7-7.5,7.4-11.3-.5,0-.9,0-1.3,0-4.7-.5-8.2-3.1-10.4-7.9l1-.6c1.9,3.1,4.9,4.9,9.2,5.3,1.1,0,2.1.2,2.9.2,1.9-3.8,2.8-6.3,2.8-7.5h0Z"/>
      <path class="st1" d="M10.7,612.8v-22.2H.9l-.5-2.1h9.4l2.5-3.5,5.7,5c-.5.5-1.6,1.1-3.5,1.4v20.4c5.4,6.1,11.4,7.1,24.2,7.1s21.2,0,30.3-.2v1c-1.9.3-3.1,1.4-3.3,3.4h-27c-13.7,0-19.9-1.7-25.3-9.8-2.7,3.1-6.8,7.3-9.5,9.7.2.9,0,1.3-.6,1.7L0,619.3c2.6-1.3,6.8-3.9,10.7-6.5h0ZM2.4,559c17,6.5,13.6,17.8,8.6,14.3-.9-4.6-5.6-10.4-9.5-13.8,0,0,.9-.5.9-.5ZM32.5,599.5v-9h-10.6l-.5-2.1h11.2v-6.9l5.7.6c0,.9-.6,1.4-1.7,1.7v4.6h11.6v-6.9l5.7.6c-.2.9-.7,1.4-1.8,1.7v4.6h4.5l2.9-3.7s3.5,2.7,5.6,4.7c-.2.8-1,1.1-1.9,1.1h-11.1v9h7.3l3.2-3.9s3.6,2.8,5.9,5c-.2.8-.9,1.2-1.9,1.2H18.9l-.5-2.2h14.2ZM34.7,602.9l5.8,2.9c-.5.8-1.6,1-3.3.7-3.6,3.2-10.6,7.2-17.1,9.1l-.7-1.2c6-2.8,12.4-7.9,15.3-11.5h0ZM34.7,560l2.1-2.2,4.9,3.7c-.4.5-1.4.9-2.6,1.2v8.4c0,.5-2,1.4-3.2,1.4h-.6v-2.4h-10.5v6.2c0,.8.2.9,2,.9h5.1c2.2,0,4.2,0,4.8,0,.5,0,.8,0,1-.4.5-.5.9-2.2,1.4-3.8h.9l.2,3.8c1.3.3,1.7.7,1.7,1.5,0,1.6-1.7,2-10.1,2h-5.7c-4.4,0-5-.9-5-3.4v-11.1l4.6,2.1h9.5v-5.7h-14.4l-.6-2.2h14.5,0ZM48.2,590.4h-11.6v9h11.6v-9ZM44,560h14.9l2.1-2.2,4.9,3.7c-.4.5-1.4.9-2.6,1.2v8.4c0,.5-2,1.4-3.3,1.4h-.5v-2.4h-10.8v6.2c0,.8.2.9,2.3.9h5.4c2.4,0,4.5,0,5.2,0,.5,0,.8,0,1.1-.4.5-.7.9-2.5,1.4-4.3h.9l.2,4.2c1.3.4,1.7.8,1.7,1.6,0,1.6-1.8,2-10.6,2h-6.1c-4.3,0-5-.9-5-3.4v-11.1l4.5,2.1h9.8v-5.7h-14.8l-.6-2.2h0ZM46.2,603.8c25.1,5.5,18,15.1,13.8,11.2-2.4-3.2-7.3-6.9-14.2-10l.5-1.3h0Z"/>
      <path class="st1" d="M12.2,643.7c1.6,1.4,2.9,2.1,4.1,2.1s3.5-.5,7.4-1.3c2.5-.4,4.2-1.3,5-2.5.7-.6,1.3-.9,1.8-.9.7,0,1.7.4,3,1.3.8.7,1.3,1.3,1.3,1.8,0,.5-.7,1.2-1.8,2.2-10.9,10-16.7,18.8-17.4,26.4-.3,4,.7,7.1,3.1,9.3,2.3,2.1,5,3.1,8.4,3.1s7.4-1.8,11.2-5.5c3.7-4,6.2-9.5,7.5-16.4.9-5,1.2-11,.6-18,0-.9-.4-2-.8-3.1-.3-.8-.5-1.3-.4-1.7,0-.9,1.3-1.3,3.4-1.3,1.3.5,1.9,1.7,1.8,3.3.3,4.2,1.7,10,4.4,17.3,1.2,3.8,3,7.3,5.4,10.5,0,0,.2,0,.3.2.2.2.4.5.4.5.9,1.3,1.2,2.6.8,3.8-.7,1.8-1.6,2.6-2.7,2.4-.7,0-1.7-1.3-2.9-3.8-2.5-4.9-4.7-12.1-6.6-21.7.2,4.2,0,8.7-1,13.8-1.3,7.4-4.1,13.1-8.1,17.2-4.5,4.2-9,6.5-13.4,6.8-4.2.2-7.8-1.1-10.6-3.6-3.1-3.1-4.5-7-4.1-12,.4-5.1,2.7-10.7,6.8-16.7,2.4-3.5,5-6.9,7.9-10.5-3.9.5-6.7,1.7-8.7,3.2-.9.6-1.5.9-2,.9-.7,0-1.3-.3-1.9-1-1.1-1.2-2-3.1-2.9-5.6l.6-.5h0ZM52.5,636.9c5.3.5,9,2.4,10.9,5.7.6,1.4.2,2.3-1.2,2.6-.9.2-2-.4-3.1-1.9-1.7-2.4-4-4.2-6.9-5.5l.2-.9h0ZM69.3,636.8c.7,1.3.5,2.1-.8,2.7-.9.4-2,0-3.4-1.4-2.1-2-4.7-3.3-7.7-4.1v-.9c5.3-.5,9.3.8,11.9,3.8h0Z"/>
      <path class="st1" d="M27.8,707.1c0-1.4-.9-3-2.7-4.7l.8-.4c4.7,1.2,7,2.6,7,4.2s-.2,1.3-.5,1.7c-.4.9-1.1,2.4-2,4.9-.2.6-.5,1.4-.9,2.4l-.3.8c1.2-.3,2.4-.9,3.7-1.8,1-.5,1.8-.9,2.4-.9,1.1,0,2.2.3,3.1,1,.4.4.5.7.5,1.2,0,1.7-3.8,3.1-11.2,4.3-4.9,12.3-9.4,22.5-13.5,30.4-1,2-1.9,3.1-2.5,3.1s-.9-.3-1.4-.8c-.6-.8-.9-1.6-.9-2.4s.6-2.4,1.6-4c4.2-6.2,8.4-14.8,12.7-25.9-3.7.2-6,.3-6.7.3-4,0-6.9-1.8-8.8-5.3l.4-1.1c2.4,2.3,5.3,3.4,8.5,3.4s4-.2,8-.5c1.8-5.3,2.7-8.7,2.7-9.8h0ZM38.4,737.8c-3,6.2-.9,9.8,6.2,11,1.9.2,4.4.3,7.5.3,1.6,0,2.5.2,2.9.2,1.1.2,2,.5,2.7,1.1.9.7,1.3,1.3,1.3,2-.4,1.6-4.2,1.9-11.5.8-11.7-1.7-15.3-6.6-10.8-14.9l1.9-.5h0ZM57.8,719.9c6.8,5.9-2.3,9.8-9.9,10.7l-.4-1c3.8-1.1,6.2-2.4,7.2-3.8,1-1.4.7-3-.9-4.6-1.4-1.6-4.6-2.4-9.6-2.5l-.2-1.3c5.6-1.2,10.1-.4,13.8,2.4h0Z"/>
      <path class="st1" d="M31.4,785.7c-4.3,5.6-6.9,10.4-7.7,14.3-.9,4-2.7,4.7-5.4,2.1-2.4-2.3-3.9-5.3-4.8-9-.8-3.2-1.2-8.3-1.3-15.2,0-2.4-.2-4.2-.5-5.3-.4-1.1-1.1-2-2.3-2.6v-1.1c4.9.2,7.3,1.9,7.3,5s0,1.3-.3,2.3c-.6,2.8-.9,5.6-.9,8.4,0,5.9,1.1,10.2,3.3,13,2,2,4.9-5.5,11.4-12.7l1.2.9h0ZM56.3,781c2.3,3.1,3.5,5.8,3.5,8.3,0,2.4-.8,3.6-2.6,3.6s-1.8-.9-2.2-2.9c0-6-4.7-13.4-13.3-11.2v-1.2c5.7-2.1,10.6-1,14.6,3.4h0Z"/>
    </g>
  </g>
</svg>