<?xml version="1.0" encoding="UTF-8"?>
<svg id="_レイヤー_2" data-name="レイヤー 2" xmlns="http://www.w3.org/2000/svg" viewBox="0 0 93.9 444.12">
  <defs>
    <style>
      .cls-1 {
        fill: #6e5858;
        stroke: #231815;
        stroke-miterlimit: 10;
        stroke-width: .18px;
      }
    </style>
  </defs>
  <g id="_レイヤー_1-2" data-name="レイヤー 1">
    <g>
      <path class="cls-1" d="M64.93,20.62h-5.92l-.28-1.12h7.16v-4.2l3.4.32c-.08.6-.44.92-1.4,1.08v2.8h3.76l1.48-1.84s1.68,1.36,2.72,2.36c-.12.4-.44.6-.92.6h-7.04v2l.08-.08c7.84,2.16,6.52,7.24,4.16,5.76-.52-1.76-2.52-3.88-4.24-5.16v10.76c0,.32-.88.8-1.56.8h-.44v-11.04c-1.68,3.16-4.04,5.84-7.12,8.08l-.48-.64c3.04-2.88,5.24-6.56,6.64-10.48ZM68.21,13.54c.68-2.16,1.4-5,1.88-7.16l3.36.96c-.12.44-.6.76-1.4.72-.68,1.56-1.8,3.68-2.92,5.48h2.84l1.52-1.88s1.76,1.36,2.88,2.4c-.12.4-.48.6-1,.6h-16.48l-.28-1.12h9.6ZM65.93,4.9V.1l3.4.4c-.08.52-.48.88-1.4,1v3.4h3.2l1.52-1.96s1.84,1.4,3,2.52c-.12.4-.48.6-.96.6h-15.32l-.32-1.16h6.88ZM61.97,6.46c5.32,3.84,3.12,7.96,1.36,6.16,0-1.88-1-4.32-1.88-5.92l.52-.24ZM80.81,22.02h-1.96v1.72c0,.16-.64.72-1.64.72h-.28V1.66l2.4,1.04h9.64l1.08-1.36,2.56,2.04c-.24.28-.72.52-1.52.64v19.24c0,.16-.8.68-1.72.68h-.28v-1.92h-2v9.68c0,.48.04.52.76.52h3.2c.28,0,.4-.04.52-.4.2-.56.56-2.72.84-4.72h.56l.12,4.84c.64.28.72.48.72.92,0,.84-.8,1.28-4.28,1.28h-2.08c-2.04,0-2.36-.56-2.36-1.92v-10.2h-2.12c-.68,7.24-3.52,10.56-11.28,12.68l-.2-.64c6.72-2.6,8.8-5.84,9.32-12.04ZM89.09,8.78V3.82h-10.24v4.96h10.24ZM89.09,14.82v-4.92h-10.24v4.92h10.24ZM89.09,15.98h-10.24v4.88h10.24v-4.88Z"/>
      <path class="cls-1" d="M93.36,57.06c-.12.44-.48.64-1,.64h-15.12v13.52c0,1.8-.44,3.12-4.4,3.44-.16-.64-.44-1.16-1.08-1.48-.8-.36-2.16-.68-4.48-.92v-.64s5.6.44,6.68.44c.96,0,1.16-.28,1.16-1v-13.36h-16l-.32-1.12h16.32v-6.2l1.76.24c2.84-1.8,5.92-4.28,7.96-6.28h-21.88l-.32-1.08h22.8l1.64-1.56,2.72,2.52c-.32.28-.8.36-1.68.4-2.56,1.88-6.52,4.44-10.24,6.12l.72.08c-.12.52-.48.84-1.36.92v4.84h10.8l1.92-2.32,3.4,2.8Z"/>
      <path class="cls-1" d="M62.45,84.88c.72.72,1.56,1,2.44.92.44-.04,4.2-1,11.28-2.88,5.2-1.4,8.12-2.12,8.76-2.16.68-.08,1.4.08,2.08.48.44.2.64.52.64.92,0,.56-.48.92-1.4,1h-1.24c-.96-.08-1.68-.08-2.24,0-2.04.2-3.64,1.16-4.84,2.92-3.08,4.16-4.48,7.8-4.2,10.88.36,3.84,2.44,5.44,6.16,5.44.6,0,1.28-.08,2.04-.24.4-.08.76-.12,1.08-.12.6,0,1.12.16,1.6.52.44.32.64.64.64.92,0,.8-1.24,1.16-3.76,1.16-6,0-9.24-2.44-9.64-7.32-.36-4,1.84-8.52,6.6-13.52-5.04,1.28-9.08,2.64-12.2,4.08-.72.36-1.24.56-1.56.56-1.28.12-2.16-.92-2.6-3.04l.36-.52ZM82.93,86.96c2.72.24,4.56,1.2,5.56,2.88.32.72.12,1.16-.6,1.32-.48.12-1-.2-1.56-.96-.88-1.2-2.04-2.16-3.52-2.8l.12-.44ZM91.49,86.88c.36.64.24,1.12-.4,1.36-.44.2-1.04-.04-1.72-.72-1.08-1-2.4-1.68-3.92-2.04v-.52c2.72-.2,4.72.44,6.04,1.92Z"/>
      <path class="cls-1" d="M76.33,139.5c-2.48-.96-5.24-1.84-8.2-2.56-.48,1.04-.96,2.04-1.44,2.88-.48.2-1.36.12-2.2-.2,1.56-2.6,3.76-7.16,5.68-11.44h-10.96l-.36-1.16h11.8c1.12-2.68,2.12-5.16,2.64-6.84l3.2.64c-.12.44-.52.8-1.48.84-.48,1.32-1.28,3.24-2.24,5.36h15.44l1.8-2.12s1.96,1.56,3.16,2.68c-.08.4-.44.6-.96.6h-7.48c-1,4.48-2.52,8-4.96,10.76,12.52,4.12,12,8.96,9.28,7.92-2.08-1.96-5.76-4.4-10.68-6.52-4.08,3.6-10.24,5.64-19.72,6.6l-.12-.72c8.28-1.28,14-3.28,17.8-6.72ZM61.97,123.58c-.88.6-2.16.76-2.56,0-.36-.68.12-1.44.8-1.88,1.56-.8,2.92-3.2,2.68-5.88h.68c.24.72.36,1.4.44,2.04h10.92v-5.52l3.48.36c-.08.52-.52.88-1.36,1v4.16h12.12l1.52-1.52,2.64,2.56c-.28.28-.72.36-1.44.4-.96,1.32-2.64,3.16-4,4.24l-.48-.32c.52-1.12,1.32-2.96,1.84-4.32h-25.2c0,2.36-1.04,3.92-2.08,4.68ZM77.57,138.26c2.36-2.6,3.84-5.92,4.72-10.08h-10c-1.2,2.64-2.52,5.52-3.76,8,3.48.64,6.48,1.36,9.04,2.08Z"/>
      <path class="cls-1" d="M61.49,177.74c-1,1.16-2.4,1.76-2.96,1.12-.48-.6-.16-1.4.4-2.08,2.32-1.84,4.48-6.44,4.4-11.68h.68c1.32,6.72-.88,10.96-2.52,12.64ZM68.97,161.06l3.32.4c-.08.48-.44.84-1.28,1v20.16c0,.88.32,1.2,2.4,1.2h5.12c2.44,0,4.24-.04,4.92-.12.56-.08.76-.2.92-.68.32-.76.8-3.56,1.24-6.8h.56l.04,7.12c.88.24,1.16.52,1.16,1,0,1.12-1.4,1.44-8.8,1.44h-5.36c-3.36,0-4.24-.64-4.24-2.8v-21.92ZM69.57,153.3c13.24,3.04,12.12,9,9.56,7.68-1.36-2-4.8-5-9.76-7.04l.2-.64ZM85.89,164.62c10.52,6.12,8.08,15.88,5.6,13-.2-3.36-1.68-9.04-6-12.56l.4-.44Z"/>
      <path class="cls-1" d="M87.89,210.22c-4.88,5.64-9.56,8.44-14.04,8.44-4.16,0-6.4-3.28-6.72-9.8-.08-1.08,0-4.04.2-8.84.08-2.28.08-3.52.04-3.68-.04-1.52-.68-2.56-1.84-3.04l-.04-.68c3.04.24,4.6,1.2,4.64,2.84.04.2-.12,1.28-.44,3.16-.56,3.88-.8,7.4-.76,10.64.28,4.88,2,7.36,5.24,7.36,3.32.12,7.68-2.12,12.96-6.76l.76.36Z"/>
      <path class="cls-1" d="M62.57,230.48c.68.72,1.52,1,2.44.92.44-.04,4.2-1,11.24-2.88,5.2-1.4,8.12-2.12,8.8-2.16.68-.08,1.4.08,2.08.48.44.2.64.52.64.92,0,.56-.48.92-1.4,1h-1.24c-.96-.08-1.68-.08-2.24,0-2.04.2-3.68,1.16-4.92,2.92-3.04,4.16-4.4,7.8-4.16,10.88.44,3.84,2.44,5.44,6.2,5.44.6,0,1.28-.08,2.04-.24.4-.08.72-.12,1.04-.12.6,0,1.12.16,1.6.52.44.32.68.64.68.92,0,.8-1.24,1.16-3.8,1.16-6,0-9.2-2.44-9.6-7.32-.4-4,1.8-8.52,6.6-13.52-5.04,1.28-9.12,2.64-12.24,4.08-.72.36-1.2.56-1.52.56-1.32.12-2.2-.92-2.64-3.04l.4-.52Z"/>
      <path class="cls-1" d="M75.01,257.74l3.96.84c-.04.36-.56.52-1.44.64,3.52,3.68,9.72,7.08,16.12,9.32l-.08.56c-.92.16-1.72.76-1.96,1.52-5.92-2.52-11.76-6.68-14.76-10.96-2.32,2.72-6.08,5.76-10.12,8.32l2.2,1.08h6.12v-4.72l3.28.4c-.08.48-.4.84-1.2.96v3.36h6.12l1.16-1.28,2.64,2c-.24.24-.76.48-1.4.6v10.04c-.04.28-1.04.8-1.76.8h-.32v-1.08h-7.2c1.08,2.12,2.64,3.84,4.56,5.28,2.48-1.48,5.28-3.6,6.8-5.08l2.76,1.92c-.28.32-.6.48-1.4.16-1.72,1.12-4.64,2.56-7.36,3.64,3.16,2.16,7.12,3.56,11.68,4.36l-.04.4c-.96.12-1.64.76-1.92,1.8-7.76-1.96-13.24-5.8-16-12.48h-6.72v8.48l9.92-1.72.16.64c-3.64,1.04-8.72,2.48-15.68,4.2-.12.52-.48.76-.84.88l-1.6-2.72c1.36-.16,3.44-.52,6-.92v-21c-2.44,1.52-5,2.92-7.44,3.92l-.28-.6c6.04-2.88,13.88-9.24,16.04-13.56ZM68.73,273.98h14.84v-3.84h-14.84v3.84ZM83.57,279.02v-3.96h-14.84v3.96h14.84Z"/>
      <path class="cls-1" d="M62.77,308.79c.52.6.96.96,1.28,1,.24.04.56-.12,1-.44.2-.2,1.12-1,2.76-2.44,2.72-2.4,3.56-3.6,4.68-3.68.68,0,1.76.68,3.2,2.12,2.4,2.32,5.2,4.68,8.44,7.04,1.92,1.32,3.44,2.24,4.52,2.72,1.16.6,1.72,1.44,1.76,2.56.08.64-.16.96-.6,1-.6.04-1.44-.32-2.56-1-2-1.28-4.16-2.96-6.44-5.08-2.92-2.64-5.32-5.04-7.28-7.2-.4-.4-.68-.6-.92-.6-.32.04-2.08,1.92-5.28,5.64-.68.76-1.12,1.28-1.36,1.52-.44.56-.8.8-1.08.72-1.12-.12-1.88-1.28-2.4-3.56l.28-.32ZM78.77,300.95c2.72.24,4.56,1.24,5.6,2.92.28.72.04,1.12-.64,1.28-.48.12-1-.2-1.56-.96-.84-1.2-2.04-2.12-3.52-2.76l.12-.48ZM87.29,300.87c.4.64.28,1.12-.32,1.4-.48.16-1.04-.04-1.72-.72-1.08-1.04-2.4-1.72-3.96-2.08v-.48c2.72-.24,4.72.4,6,1.88Z"/>
      <path class="cls-1" d="M70.13,352.9c8.32-1.52,12.48-4.16,12.48-7.96,0-1.16-.32-2.12-1-2.88-1-1-2.2-1.48-3.64-1.48-2.52.08-4.48.76-5.84,2-1.04.96-1.84,2.16-2.36,3.6-.24.32-.48.48-.72.48-.8,0-1.28-1.12-1.44-3.36-.24-3.24.28-6.88,1.6-10.92l.8.2c0,.28.04.48.04.6,0,.4.16,1,.4,1.72.12.32.16.64.2.92.04.44-.04.92-.24,1.44-.84,1.8-1.2,3.64-1.08,5.48.04.24.08.36.16.36.36,0,.8-.28,1.36-.8,2.04-2,4.52-3,7.36-3,2.36,0,4.16.72,5.44,2.12.96,1.08,1.44,2.28,1.44,3.64,0,4.88-4.76,7.68-14.28,8.44l-.68-.6ZM70.85,326.06c2.6.32,4.44.72,5.52,1.24,1.04.44,1.56,1.2,1.56,2.24,0,.76-.24,1.08-.68,1.04-.16,0-.4-.08-.68-.16-.48-.08-.88-.12-1.32-.12-1.32,0-2.64.4-3.92,1.24l-.28-.56c.76-.8,1.6-1.4,2.52-1.88.44-.12.52-.32.24-.64-1-.84-2.24-1.44-3.72-1.76l.76-.64Z"/>
      <path class="cls-1" d="M64.01,380.78c1.16-1.24,3.2-4.4,6.16-9.52l.04-.68v-.52l.04-1.8c-1.12.44-2.24,1-3.36,1.6-.68.32-1.16.52-1.44.52-.92,0-1.6-1.04-1.92-3.16l.32-.36c.72.76,1.36,1.12,1.96,1.12.56,0,2.08-.44,4.48-1.28.04-.44.04-.96.04-1.52v-.64c0-1.6-.12-2.64-.44-3.08-.16-.28-.64-.56-1.44-.84l.04-.48c2.92-.32,4.32.24,4.24,1.72,0,.28-.04.8-.16,1.48-.24.92-.44,1.8-.56,2.64-.08.08-.04.12.04.12.36,0,.68.24,1.04.72.32.24.48.52.48.8,0,.24-.16.52-.44.84-.48.52-1,1.16-1.48,1.92,0,1.04-.04,1.72-.04,2.04v.48c4.72-5.96,8.28-8.92,10.68-8.92,2.24,0,3.24,1.48,3.08,4.44-.04.6-.24,2.08-.6,4.48-.44,2.92-.72,4.76-.76,5.52-.12,1.76.28,2.64,1.28,2.64,1.52.04,3.52-.92,5.92-2.8l.32.68c-2.4,2.88-4.56,4.32-6.52,4.32-2.2,0-3.24-1.8-3.04-5.44.08-1.32.32-3.44.72-6.28.28-1.64.44-2.76.44-3.44.12-1.6-.36-2.44-1.44-2.44-1.76,0-5.12,3-10.08,8.92,0,3.04.08,5.76.24,8.12.04.36.04.72.04,1.04,0,.76-.12,1.36-.36,1.8-.44.68-.88,1.04-1.28,1.04-.48,0-.8-.4-.92-1.28-.24-1.4-.84-3.56-1.84-6.48-1.32,2.48-2.24,4.12-2.72,4.92-.24.4-.48.6-.72.6-.76,0-1.16-.56-1.16-1.68,0-.48.36-1.12,1.12-1.88ZM68.01,377.98l1.92,4.28c.08-2.16.16-4.92.2-8.24-.76,1.48-1.44,2.8-2.12,3.96Z"/>
      <path class="cls-1" d="M69.61,416.77c-.08-.56.04-1.08.36-1.56.52-.68,1.32-1.12,2.32-1.28,1.8-.36,3.48.04,5.04,1.12.92.64,1.52,1.4,1.8,2.24.88-.24,1.72-.76,2.56-1.52,1.44-1.32,2.16-2.84,2.16-4.56s-.8-3.2-2.36-4.2c-1.2-.72-2.6-1.08-4.16-1.08-2.48,0-6.76,2.04-9.72,7.44-.36.68-.76,1.04-1.24,1.12-.56.04-.92-.48-1-1.56-.08-.64.12-1.2.6-1.72l4.12-4.92c1.32-1.6,3.64-4.44,6.88-8.56l1.48-1.96-.04-.04c-3.28,1.28-5.6,2.2-6.96,2.76-.44.16-.84.24-1.08.24-1.24,0-2-1.08-2.36-3.32l.52-.08c.44.68,1,1,1.76,1,1.04,0,3.04-.4,5.96-1.28.92-.24,1.56-.56,1.92-.92.12-.12.24-.16.44-.16.48-.12,1.08.08,1.72.52.56.4.88.76.96,1,.12.32,0,.6-.4.88-.64.6-3.96,4.28-9.96,11.04,2.04-1.8,4.36-2.72,6.92-2.72,2.4,0,4.36.52,5.84,1.64,1.72,1.24,2.6,2.88,2.6,4.8,0,2.2-.96,4.12-2.8,5.8-2.04,1.8-4.16,2.72-6.4,2.8-2.36.16-4.32-.16-5.88-.92-.8-.44-1.32-1-1.52-1.64-.04-.08-.08-.2-.08-.4ZM72.09,417.57c1.24.64,2.76.76,4.6.44l.24-.04c-.4-.84-.92-1.52-1.56-2.04-1.08-.84-2.12-1.2-3.12-1-1,.2-1.48.68-1.32,1.44.12.56.52.92,1.16,1.2Z"/>
    </g>
    <g>
      <path class="cls-1" d="M11.85,194.41c-.04-1.84-.96-2.68-2.76-2.52l-.04-.48c3.56-1.16,5.32-.72,5.24,1.24-.08.2-.12.48-.2.84-.16,1.12-.32,2.56-.44,4.32,1.32-.36,2.48-.92,3.44-1.64.52-.28.88-.4,1.12-.36.6.04,1.12.24,1.6.72.2.2.32.32.32.44,0,.84-2.16,1.68-6.52,2.56l-.04.28v7.48c3.08-2.04,5.84-3.08,8.28-3.08,1.96,0,3.56.44,4.8,1.36,2.64,2.04,2.52,5.76-.52,8.04-1.32.92-2.88,1.4-4.76,1.4-1.72,0-3.4-.24-5.04-.68l.24-.76c1.56.2,2.88.28,4,.2,1.28-.12,2.44-.48,3.56-1.08,2.64-1.88,2.56-4.64.76-6-.88-.6-2-.92-3.44-.92-2.2,0-4.84,1.04-7.88,3.08v2.96c0,1.36-.28,2.28-.84,2.84-1,1.28-1.92,1.48-2.8.52l-2.76-3c-1.4.4-2.88.52-4.44.36l-.48-.96c2.84.32,6.04-.76,9.56-3.2l.04-8.76c-.92.12-1.84.16-2.76.08-2.08-.12-3.72-1.04-4.84-2.72l.24-.72c1.28,1.16,2.84,1.8,4.6,1.92.96.04,1.88,0,2.76-.12v-3.64ZM9.01,212.53l1.76,1.04c.32.12.52-.12.64-.76.2-.76.32-1.72.4-2.92-1.16.88-2.36,1.56-3.64,2l.84.64ZM27.08,198.21c1.88-.12,3.2.24,3.88,1.04.64.76.64,1.36-.04,1.84-.36.24-.92.24-1.6-.12-2.4-1.2-5.64-1-9.72.56l-.52-.4c3.48-1.92,6.12-2.88,8-2.92Z"/>
      <path class="cls-1" d="M11.33,232.46c-.44-1.12-.92-2.04-1.4-2.84-1.12-1.88-.36-3.12,2.28-3.68,1.08-.2,2.6-.08,4.52.28.32.08.48-.04.44-.32-.64-1.2-2.28-2.16-4.92-2.84l.24-.48c2.68.08,4.68.56,6.04,1.4.96.52,1.48,1.16,1.52,1.88,0,.56-.16,1.04-.6,1.4-.24.16-.52.32-.88.44-.16,0-.88-.12-2.16-.4-1.28-.32-2.56-.4-3.84-.32-1.28.12-1.56.84-.76,2.2.28.6.68,1.44,1.12,2.48,4.8-2.24,8.48-3.4,11.08-3.4,1.92,0,3.52.52,4.8,1.56,1.36,1.08,2.08,2.4,2.2,3.96.12,1.72-.56,3.16-1.92,4.32-1.16,1.08-2.6,1.6-4.32,1.6-2.96-.08-5.52-1.48-7.72-4.24l.36-.44c2.48,2.08,4.6,3.08,6.36,3.08,1.16,0,2.2-.28,3.12-.88,1.32-.8,1.92-2,1.84-3.48-.08-1.32-.64-2.32-1.72-3.08-.92-.64-2-.96-3.28-.96-2.36,0-5.72,1.2-10.04,3.64l2.4,5.04c1.84,3.96,3.12,6.68,3.84,8.12.28.6.44,1.12.44,1.6.08,1.28-.32,1.92-1.12,1.92-.48,0-1-.68-1.52-2.12-2.16-6.12-4-10.68-5.52-13.72l-.2.04c-1.52.96-2.8,1.76-3.84,2.44-.52.32-.96.48-1.4.48-1.04,0-2.12-.72-3.16-2.2l.2-.64c.8.36,1.44.52,1.88.52.64,0,1.92-.48,3.84-1.48l1.8-.88Z"/>
      <path class="cls-1" d="M3.01,261.94c1,.72,1.76,1.08,2.24,1.08.92.12,1.8-.08,2.68-.68,5.96-3.88,10.4-5.8,13.4-5.8,2.6,0,4.64.6,6.12,1.76,1.8,1.44,2.68,3.28,2.68,5.52,0,3.2-1.6,5.84-4.88,7.84-2.88,1.76-6.92,2.76-12.08,2.96l-.32-.68c9.88-1.44,14.8-4.84,14.8-10.16,0-1.92-.64-3.4-1.92-4.44-1.16-.92-2.6-1.4-4.4-1.4-3.4,0-8,2.44-13.84,7.24-.48.28-.88.4-1.2.4-1.2,0-2.36-1.08-3.48-3.2l.2-.44Z"/>
      <path class="cls-1" d="M14.21,284.38c-.12-.64-.68-1.2-1.8-1.68l.16-.36c.8-.08,1.32-.16,1.52-.16,1.64,0,2.52.44,2.6,1.24.04.56-.52,2.08-1.72,4.6.96-.12,1.64-.36,2.04-.64.68-.36,1.12-.52,1.4-.48.44.04.84.16,1.2.44.36.16.52.4.52.68,0,.36-.36.72-1.04,1-1.52.48-3.2.76-5.08.8l-3.24,5.2c.84-.68,1.76-1,2.76-1,1.76,0,2.76,1.28,2.92,3.76,3.08-1.84,5.8-3.36,8.2-4.56.52-.32.76-.64.76-.92,0-.36-.36-.72-1.08-1.08l.4-.24c2.4.52,3.56,1.32,3.52,2.44,0,.36-.48.72-1.48,1.08-3.52,1.6-6.88,3.24-10.16,4.92.04,1.04.08,2.04.08,3,0,.6-.16,1.12-.44,1.52-.36.48-.72.68-1.12.68-.64,0-.96-.6-.88-1.76.08-.88.12-1.52.08-2-1.88,1.52-2.8,2.96-2.8,4.4s1.76,2,5.24,1.68c1.88-.12,3.52-.4,4.92-.84.4-.16.72-.24.96-.24.44,0,.76.08,1.04.28.52.44.8.84.8,1.24,0,.92-2.16,1.44-6.44,1.56-5.4.12-8.12-1.08-8.12-3.6,0-2,1.52-4.12,4.48-6.36,0-2.48-.4-3.72-1.24-3.76-1.12-.08-2.44,1.08-4.04,3.52-.32.52-.6.8-.84.8-.28,0-.52-.12-.68-.32-.44-.36-.68-.84-.72-1.48-.08-.36.44-1.12,1.44-2.24,1.64-1.92,2.88-3.84,3.76-5.76-.24,0-.44-.04-.68-.04-2.4-.24-4.16-1.56-5.28-4l.52-.32c.96,1.56,2.52,2.48,4.68,2.72.56.04,1.08.08,1.48.08.96-1.92,1.4-3.2,1.4-3.8Z"/>
      <path class="cls-1" d="M5.57,344.53v-11.32H.57l-.24-1.08h4.76l1.28-1.8,2.92,2.52c-.24.24-.8.56-1.8.72v10.36c2.76,3.12,5.8,3.6,12.32,3.6,4.6,0,10.8,0,15.44-.12v.52c-.96.16-1.56.72-1.68,1.72h-13.72c-6.96,0-10.12-.84-12.88-4.96-1.36,1.56-3.48,3.72-4.84,4.92.12.44-.04.68-.32.88l-1.68-2.68c1.32-.68,3.48-2,5.44-3.28ZM1.33,317.14c8.64,3.32,6.92,9.08,4.4,7.28-.48-2.36-2.84-5.28-4.84-7l.44-.28ZM16.69,337.73v-4.6h-5.4l-.28-1.08h5.68v-3.52l2.92.32c-.04.44-.32.72-.88.84v2.36h5.92v-3.52l2.92.32c-.08.44-.36.72-.92.88v2.32h2.28l1.48-1.88s1.76,1.36,2.84,2.4c-.12.4-.52.56-.96.56h-5.64v4.6h3.72l1.64-2s1.84,1.44,3,2.52c-.12.4-.44.6-.96.6H9.73l-.28-1.12h7.24ZM17.81,339.45l2.96,1.48c-.24.4-.8.52-1.68.36-1.84,1.64-5.4,3.64-8.68,4.64l-.36-.6c3.04-1.44,6.32-4,7.76-5.88ZM17.81,317.62l1.08-1.12,2.48,1.88c-.2.24-.72.48-1.32.6v4.28c-.04.24-1.04.72-1.64.72h-.32v-1.24h-5.32v3.16c0,.4.08.48,1.04.48h2.6c1.12,0,2.12,0,2.44-.04.24,0,.4-.04.52-.2.24-.28.48-1.12.72-1.96h.44l.12,1.96c.68.16.88.36.88.76,0,.8-.88,1.04-5.16,1.04h-2.88c-2.24,0-2.56-.44-2.56-1.72v-5.64l2.32,1.08h4.84v-2.92h-7.32l-.32-1.12h7.36ZM24.64,333.13h-5.92v4.6h5.92v-4.6ZM22.52,317.62h7.6l1.08-1.12,2.48,1.88c-.2.24-.72.48-1.32.6v4.28c0,.24-1,.72-1.68.72h-.28v-1.24h-5.48v3.16c0,.4.08.48,1.16.48h2.76c1.24,0,2.28,0,2.64-.04.28,0,.4-.04.56-.2.24-.36.48-1.28.72-2.2h.48l.08,2.16c.68.2.88.4.88.8,0,.8-.92,1.04-5.4,1.04h-3.12c-2.2,0-2.56-.44-2.56-1.72v-5.64l2.28,1.08h5v-2.92h-7.56l-.32-1.12ZM23.64,339.93c12.76,2.8,9.16,7.68,7,5.72-1.24-1.64-3.72-3.52-7.24-5.08l.24-.64Z"/>
      <path class="cls-1" d="M6.33,360.23c.8.72,1.48,1.08,2.08,1.08.48,0,1.76-.24,3.76-.68,1.28-.2,2.12-.64,2.56-1.28.36-.32.68-.48.92-.48.36,0,.88.2,1.52.68.4.36.64.68.64.92-.04.24-.36.6-.92,1.12-5.56,5.08-8.52,9.56-8.84,13.44-.16,2.04.36,3.6,1.6,4.76,1.16,1.08,2.56,1.6,4.28,1.6,1.84,0,3.76-.92,5.72-2.8,1.88-2.04,3.16-4.84,3.8-8.36.48-2.56.6-5.6.32-9.16-.04-.48-.2-1.04-.4-1.6-.16-.4-.24-.68-.2-.84.04-.44.64-.68,1.72-.68.64.28.96.84.92,1.68.16,2.16.88,5.08,2.24,8.8.6,1.96,1.52,3.72,2.76,5.32.04,0,.08.04.16.08.12.12.2.24.2.28.48.64.6,1.32.4,1.96-.36.92-.8,1.32-1.36,1.24-.36-.04-.84-.68-1.48-1.92-1.28-2.48-2.4-6.16-3.36-11.04.12,2.12-.04,4.44-.52,7-.68,3.76-2.08,6.68-4.12,8.76-2.28,2.16-4.56,3.32-6.84,3.44-2.16.08-3.96-.56-5.4-1.84-1.6-1.56-2.28-3.56-2.08-6.08.2-2.6,1.36-5.44,3.48-8.52,1.24-1.76,2.56-3.52,4.04-5.36-1.96.28-3.4.84-4.44,1.64-.44.32-.76.48-1,.48-.36,0-.68-.16-.96-.52-.56-.6-1.04-1.56-1.48-2.84l.28-.28ZM26.84,356.79c2.72.24,4.56,1.2,5.56,2.88.32.72.08,1.16-.6,1.32-.48.12-1-.2-1.56-.96-.88-1.24-2.04-2.16-3.52-2.8l.12-.44ZM35.4,356.71c.36.64.24,1.08-.4,1.36-.48.2-1.04-.04-1.72-.72-1.08-1-2.4-1.68-3.92-2.08v-.48c2.72-.24,4.72.4,6.04,1.92Z"/>
      <path class="cls-1" d="M14.29,393.3c0-.72-.44-1.52-1.36-2.4l.4-.2c2.4.6,3.56,1.32,3.56,2.16,0,.32-.08.64-.28.88-.2.44-.56,1.24-1,2.48-.12.32-.24.72-.44,1.2l-.16.4c.6-.16,1.24-.48,1.88-.92.52-.28.92-.44,1.2-.44.56,0,1.12.16,1.6.52.2.2.28.36.28.6,0,.84-1.92,1.56-5.72,2.2-2.48,6.28-4.76,11.44-6.88,15.48-.52,1.04-.96,1.6-1.28,1.6-.24,0-.48-.16-.72-.4-.28-.4-.44-.8-.44-1.24,0-.56.28-1.24.8-2.04,2.12-3.16,4.28-7.56,6.48-13.2-1.88.12-3.04.16-3.4.16-2.04,0-3.52-.92-4.48-2.72l.2-.56c1.24,1.16,2.68,1.72,4.32,1.72.72,0,2.04-.08,4.08-.28.92-2.72,1.36-4.4,1.36-5ZM19.69,408.93c-1.52,3.16-.48,5,3.16,5.6.96.12,2.24.16,3.8.16.8.04,1.28.08,1.48.12.56.08,1,.28,1.36.56.48.36.68.68.64,1-.2.8-2.16.96-5.88.4-5.96-.84-7.8-3.36-5.52-7.56l.96-.28ZM29.52,399.82c3.48,3-1.16,5-5.04,5.44l-.2-.52c1.96-.56,3.16-1.2,3.64-1.92.52-.72.36-1.52-.44-2.32-.72-.8-2.36-1.2-4.88-1.28l-.08-.64c2.84-.6,5.16-.2,7,1.24Z"/>
      <path class="cls-1" d="M16.09,434.9c-2.2,2.84-3.52,5.28-3.92,7.28-.44,2.04-1.36,2.4-2.76,1.08-1.2-1.16-2-2.68-2.44-4.6-.4-1.64-.6-4.24-.64-7.76,0-1.24-.08-2.12-.24-2.68-.2-.56-.56-1-1.16-1.32l.04-.56c2.44.12,3.68.96,3.68,2.52,0,.28-.04.68-.16,1.16-.32,1.4-.48,2.84-.48,4.28,0,3,.56,5.2,1.68,6.6,1,1,2.48-2.8,5.8-6.48l.6.48ZM28.8,432.5c1.16,1.56,1.76,2.96,1.76,4.24.04,1.24-.4,1.84-1.32,1.84-.52,0-.92-.48-1.12-1.48,0-3.08-2.4-6.84-6.76-5.72v-.6c2.92-1.08,5.4-.52,7.44,1.72Z"/>
    </g>
  </g>
</svg>