<?xml version="1.0" encoding="UTF-8"?>
<svg id="_レイヤー_2" data-name="レイヤー 2" xmlns="http://www.w3.org/2000/svg" viewBox="0 0 206.88 803.66">
  <defs>
    <style>
      .cls-1 {
        fill: #6e5858;
      }
    </style>
  </defs>
  <g id="_レイヤー_1-2" data-name="レイヤー 1">
    <g>
      <path class="cls-1" d="M150.13,40.32h-11.63l-.55-2.2h14.07v-8.25l6.68.63c-.16,1.18-.87,1.81-2.75,2.12v5.5h7.39l2.91-3.62s3.3,2.67,5.34,4.64c-.24.79-.86,1.18-1.81,1.18h-13.83v3.93l.16-.16c15.41,4.24,12.81,14.23,8.17,11.32-1.02-3.46-4.95-7.62-8.33-10.14v21.14c0,.63-1.73,1.57-3.07,1.57h-.86v-21.69c-3.3,6.21-7.94,11.48-13.99,15.88l-.94-1.26c5.97-5.66,10.3-12.89,13.05-20.59ZM156.57,26.41c1.34-4.24,2.75-9.82,3.69-14.07l6.6,1.89c-.24.86-1.18,1.49-2.75,1.41-1.34,3.07-3.54,7.23-5.74,10.77h5.58l2.99-3.69s3.46,2.67,5.66,4.72c-.24.79-.94,1.18-1.97,1.18h-32.38l-.55-2.2h18.86ZM152.09,9.43V0l6.68.79c-.16,1.02-.94,1.73-2.75,1.96v6.68h6.29l2.99-3.85s3.62,2.75,5.89,4.95c-.24.79-.94,1.18-1.89,1.18h-30.1l-.63-2.28h13.52ZM144.31,12.5c10.45,7.55,6.13,15.64,2.67,12.1,0-3.69-1.96-8.49-3.69-11.63l1.02-.47ZM181.33,43.07h-3.85v3.38c0,.31-1.26,1.41-3.22,1.41h-.55V3.07l4.72,2.04h18.94l2.12-2.67,5.03,4.01c-.47.55-1.42,1.02-2.99,1.26v37.81c0,.31-1.57,1.34-3.38,1.34h-.55v-3.77h-3.93v19.02c0,.94.08,1.02,1.49,1.02h6.29c.55,0,.79-.08,1.02-.79.39-1.1,1.1-5.34,1.65-9.27h1.1l.24,9.51c1.26.55,1.42.94,1.42,1.81,0,1.65-1.57,2.52-8.41,2.52h-4.09c-4.01,0-4.64-1.1-4.64-3.77v-20.04h-4.17c-1.34,14.23-6.92,20.75-22.16,24.92l-.39-1.26c13.21-5.11,17.29-11.48,18.31-23.66ZM197.6,17.06V7.31h-20.12v9.75h20.12ZM197.6,28.92v-9.67h-20.12v9.67h20.12ZM197.6,31.2h-20.12v9.59h20.12v-9.59Z"/>
      <path class="cls-1" d="M206.01,111.93c-.24.86-.94,1.26-1.96,1.26h-29.71v26.57c0,3.54-.86,6.13-8.65,6.76-.31-1.26-.86-2.28-2.12-2.91-1.57-.71-4.24-1.34-8.8-1.81v-1.26s11,.86,13.12.86c1.89,0,2.28-.55,2.28-1.96v-26.25h-31.44l-.63-2.2h32.07v-12.18l3.46.47c5.58-3.54,11.63-8.41,15.64-12.34h-42.99l-.63-2.12h44.8l3.22-3.07,5.34,4.95c-.63.55-1.57.71-3.3.79-5.03,3.69-12.81,8.72-20.12,12.03l1.42.16c-.24,1.02-.94,1.65-2.67,1.81v9.51h21.22l3.77-4.56,6.68,5.5Z"/>
      <path class="cls-1" d="M145.26,165.02c1.42,1.42,3.07,1.96,4.79,1.81.87-.08,8.25-1.97,22.17-5.66,10.22-2.75,15.96-4.17,17.21-4.24,1.34-.16,2.75.16,4.09.94.87.39,1.26,1.02,1.26,1.81,0,1.1-.94,1.81-2.75,1.97h-2.44c-1.89-.16-3.3-.16-4.4,0-4.01.39-7.15,2.28-9.51,5.74-6.05,8.17-8.8,15.33-8.25,21.38.71,7.55,4.79,10.69,12.1,10.69,1.18,0,2.51-.16,4.01-.47.79-.16,1.49-.24,2.12-.24,1.18,0,2.2.31,3.14,1.02.86.63,1.26,1.26,1.26,1.81,0,1.57-2.44,2.28-7.39,2.28-11.79,0-18.16-4.79-18.94-14.38-.71-7.86,3.62-16.74,12.97-26.57-9.9,2.52-17.84,5.19-23.97,8.02-1.42.71-2.44,1.1-3.07,1.1-2.52.24-4.24-1.81-5.11-5.97l.71-1.02ZM185.5,169.11c5.34.47,8.96,2.36,10.92,5.66.63,1.42.24,2.28-1.18,2.59-.94.24-1.96-.39-3.07-1.89-1.73-2.36-4.01-4.24-6.92-5.5l.24-.86ZM202.32,168.95c.71,1.26.47,2.2-.79,2.67-.87.39-2.04-.08-3.38-1.42-2.12-1.96-4.72-3.3-7.7-4.01v-1.02c5.34-.39,9.27.86,11.87,3.77Z"/>
      <path class="cls-1" d="M172.53,270.78c-4.87-1.89-10.3-3.62-16.11-5.03-.94,2.04-1.89,4.01-2.83,5.66-.94.39-2.67.24-4.32-.39,3.07-5.11,7.39-14.07,11.16-22.48h-21.54l-.71-2.28h23.19c2.2-5.27,4.17-10.14,5.19-13.44l6.29,1.26c-.24.86-1.02,1.57-2.91,1.65-.94,2.59-2.51,6.37-4.4,10.53h30.34l3.54-4.17s3.85,3.06,6.21,5.27c-.16.79-.86,1.18-1.89,1.18h-14.7c-1.96,8.8-4.95,15.72-9.75,21.14,24.6,8.1,23.58,17.61,18.23,15.56-4.09-3.85-11.32-8.65-20.99-12.81-8.02,7.07-20.12,11.08-38.75,12.97l-.24-1.41c16.27-2.52,27.51-6.44,34.98-13.2ZM144.31,239.5c-1.73,1.18-4.24,1.49-5.03,0-.71-1.34.24-2.83,1.57-3.69,3.07-1.57,5.74-6.29,5.27-11.55h1.34c.47,1.41.71,2.75.86,4.01h21.46v-10.85l6.84.71c-.16,1.02-1.02,1.73-2.67,1.96v8.17h23.82l2.99-2.99,5.19,5.03c-.55.55-1.42.71-2.83.79-1.89,2.59-5.19,6.21-7.86,8.33l-.94-.63c1.02-2.2,2.59-5.82,3.62-8.49h-49.52c0,4.64-2.04,7.7-4.09,9.2ZM174.97,268.34c4.64-5.11,7.55-11.63,9.27-19.81h-19.65c-2.36,5.19-4.95,10.85-7.39,15.72,6.84,1.26,12.73,2.67,17.76,4.09Z"/>
      <path class="cls-1" d="M143.37,345.92c-1.96,2.28-4.72,3.46-5.82,2.2-.94-1.18-.31-2.75.79-4.09,4.56-3.62,8.8-12.65,8.65-22.95h1.34c2.59,13.2-1.73,21.53-4.95,24.84ZM158.07,313.15l6.52.79c-.16.94-.86,1.65-2.51,1.96v39.61c0,1.73.63,2.36,4.72,2.36h10.06c4.79,0,8.33-.08,9.67-.24,1.1-.16,1.49-.39,1.81-1.34.63-1.49,1.57-7,2.44-13.36h1.1l.08,13.99c1.73.47,2.28,1.02,2.28,1.96,0,2.2-2.75,2.83-17.29,2.83h-10.53c-6.6,0-8.33-1.26-8.33-5.5v-43.07ZM159.25,297.9c26.02,5.97,23.82,17.68,18.79,15.09-2.67-3.93-9.43-9.82-19.18-13.83l.39-1.26ZM191.31,320.14c20.67,12.02,15.88,31.2,11,25.54-.39-6.6-3.3-17.76-11.79-24.68l.79-.86Z"/>
      <path class="cls-1" d="M195.24,409.75c-9.59,11.08-18.79,16.58-27.59,16.58-8.17,0-12.58-6.45-13.21-19.26-.16-2.12,0-7.94.39-17.37.16-4.48.16-6.92.08-7.23-.08-2.99-1.34-5.03-3.62-5.97l-.08-1.34c5.97.47,9.04,2.36,9.12,5.58.08.39-.24,2.52-.87,6.21-1.1,7.62-1.57,14.54-1.49,20.91.55,9.59,3.93,14.46,10.3,14.46,6.52.24,15.09-4.17,25.47-13.28l1.49.71Z"/>
      <path class="cls-1" d="M145.49,447.99c1.34,1.42,2.99,1.96,4.79,1.81.86-.08,8.25-1.96,22.09-5.66,10.22-2.75,15.96-4.17,17.29-4.24,1.34-.16,2.75.16,4.09.94.86.39,1.26,1.02,1.26,1.81,0,1.1-.94,1.81-2.75,1.96h-2.44c-1.89-.16-3.3-.16-4.4,0-4.01.39-7.23,2.28-9.67,5.74-5.97,8.17-8.65,15.33-8.17,21.38.87,7.55,4.79,10.69,12.18,10.69,1.18,0,2.52-.16,4.01-.47.79-.16,1.42-.24,2.04-.24,1.18,0,2.2.31,3.14,1.02.86.63,1.34,1.26,1.34,1.81,0,1.57-2.44,2.28-7.47,2.28-11.79,0-18.08-4.79-18.86-14.38-.79-7.86,3.54-16.74,12.97-26.57-9.9,2.52-17.92,5.19-24.05,8.02-1.42.71-2.36,1.1-2.99,1.1-2.59.24-4.32-1.81-5.19-5.97l.79-1.02Z"/>
      <path class="cls-1" d="M164.12,546.12h-25.54l-.63-2.12h31.83v-7l6.84.79c-.16,1.02-.86,1.73-2.67,1.96v4.24h21.93l3.62-4.4s3.93,3.07,6.37,5.34c-.16.79-.86,1.18-1.89,1.18h-27.59c7.07,7.39,19.57,13.52,30.5,16.03l-.08.86c-1.81.24-3.38,1.49-3.85,3.38-11-3.69-22.01-10.92-28.53-20.28h-.47v20.83c0,.63-1.81,1.49-3.38,1.49h-.79v-21.93c-7.23,8.88-18.71,15.8-31.99,20.04l-.63-1.26c11-4.56,20.67-11.55,26.96-19.18ZM158.22,522.86l.47,1.02c-3.54,2.59-8.72,6.68-15.56,11.32-.08,1.02-.39,1.73-1.02,2.12l-3.77-5.03c3.46-1.34,11.71-5.27,19.89-9.43ZM141.48,505.96c17.45,5.19,15.09,15.48,10.14,12.65-1.65-4.01-6.92-9.12-10.85-11.95l.71-.71ZM159.95,506.75l4.24,1.97h3.93c.55-2.52,1.42-6.13,1.81-8.57l7.07,1.41c-.31.94-1.26,1.57-2.75,1.57-1.02,1.65-2.52,3.77-3.77,5.58h8.8l2.36-2.59,5.5,4.17c-.55.63-1.81,1.18-3.14,1.49v23.82c-.08.47-2.2,1.49-3.54,1.49h-.55v-3.06h-16.03v2.36c0,.39-1.57,1.34-3.22,1.34h-.71v-30.97ZM179.92,520.11v-9.12h-16.03v9.12h16.03ZM179.92,531.9v-9.59h-16.03v9.59h16.03ZM186.28,522.86c21.85,4.17,21.3,15.17,15.8,13.13-2.99-4.09-10.85-9.59-16.43-12.34l.63-.79ZM197.68,505.18l6.29,3.85c-.47.63-1.34.63-2.59.31-3.22,2.75-9.43,7-13.99,10.14l-1.02-1.02c3.85-4.01,8.72-9.75,11.32-13.28Z"/>
      <path class="cls-1" d="M195.24,614.12c-9.59,11.08-18.79,16.58-27.59,16.58-8.17,0-12.58-6.45-13.21-19.26-.16-2.12,0-7.94.39-17.37.16-4.48.16-6.92.08-7.23-.08-2.99-1.34-5.03-3.62-5.97l-.08-1.34c5.97.47,9.04,2.36,9.12,5.58.08.39-.24,2.52-.87,6.21-1.1,7.62-1.57,14.54-1.49,20.91.55,9.59,3.93,14.46,10.3,14.46,6.52.24,15.09-4.17,25.47-13.28l1.49.71Z"/>
      <path class="cls-1" d="M179.6,649.96c0-1.65-1.18-3.22-3.62-4.56l1.18-.71c5.19.55,7.7,2.12,7.7,4.79,0,1.57-.86,4.64-2.75,9.2,4.32.47,7.54,1.57,9.75,3.38,4.17,2.99,6.29,7.23,6.29,12.81,0,5.89-2.36,10.61-7.07,14.3-4.56,3.77-11.71,5.74-21.54,5.97l-.47-1.1c6.68-.94,12.1-2.67,16.35-5.34,5.27-3.14,7.94-7.78,7.94-13.75,0-4.79-1.49-8.41-4.48-10.85-1.57-1.49-4.09-2.59-7.55-3.3-2.36,5.89-5.03,10.61-7.94,14.15-2.91,3.46-4.32,5.27-4.24,5.27.16.24.39.39.79.63,1.26,1.02,1.96,1.89,2.04,2.67,0,1.42-.55,2.04-1.73,2.04-.71,0-1.34-.24-1.89-.79-.86-.87-1.57-1.57-2.04-2.12-4.48,4.09-8.49,6.13-11.95,6.13-1.57,0-3.07-.31-4.32-1.1-2.12-1.42-3.22-3.77-3.22-7.07,0-4.56,2.36-9.04,7.07-13.44,1.73-1.65,3.22-2.91,4.56-3.85-1.57-7.31-3.22-11.71-5.03-13.36l.94-.86c3.77,1.26,6.37,5.42,7.7,12.5,5.11-2.28,10.3-3.46,15.56-3.46,1.34-3.77,1.96-6.44,1.96-8.17ZM155.63,686.04c2.44,0,5.5-1.81,9.12-5.42-2.04-3.3-3.93-8.17-5.66-14.62-5.19,3.85-7.94,8.96-8.33,15.25.16,3.22,1.73,4.79,4.87,4.79ZM167.34,677.47c.86-1.02,2.2-2.83,3.77-5.5,1.65-2.67,3.54-6.45,5.66-11.4-5.11-.08-9.9,1.02-14.15,3.46.94,4.95,2.51,9.43,4.72,13.44Z"/>
      <path class="cls-1" d="M159.32,753.7c-.16-1.1.08-2.12.71-3.07,1.02-1.34,2.59-2.2,4.56-2.51,3.54-.71,6.84.08,9.9,2.2,1.81,1.26,2.99,2.75,3.54,4.4,1.73-.47,3.38-1.49,5.03-2.99,2.83-2.59,4.24-5.58,4.24-8.96s-1.57-6.29-4.64-8.25c-2.36-1.42-5.11-2.12-8.17-2.12-4.87,0-13.28,4.01-19.1,14.62-.71,1.34-1.49,2.04-2.44,2.2-1.1.08-1.81-.94-1.96-3.07-.16-1.26.24-2.36,1.18-3.38l8.1-9.67c2.59-3.14,7.15-8.72,13.52-16.82l2.91-3.85-.08-.08c-6.45,2.52-11,4.32-13.68,5.42-.87.31-1.65.47-2.12.47-2.44,0-3.93-2.12-4.64-6.52l1.02-.16c.87,1.34,1.97,1.96,3.46,1.96,2.04,0,5.97-.79,11.71-2.51,1.81-.47,3.07-1.1,3.77-1.81.24-.24.47-.31.86-.31.94-.24,2.12.16,3.38,1.02,1.1.79,1.73,1.49,1.89,1.96.24.63,0,1.18-.79,1.73-1.26,1.18-7.78,8.41-19.57,21.69,4.01-3.54,8.57-5.34,13.6-5.34,4.72,0,8.57,1.02,11.48,3.22,3.38,2.44,5.11,5.66,5.11,9.43,0,4.32-1.89,8.1-5.5,11.4-4.01,3.54-8.17,5.34-12.58,5.5-4.64.31-8.49-.31-11.55-1.81-1.57-.87-2.59-1.96-2.99-3.22-.08-.16-.16-.39-.16-.79ZM164.2,755.27c2.44,1.26,5.42,1.49,9.04.86l.47-.08c-.79-1.65-1.81-2.99-3.07-4.01-2.12-1.65-4.17-2.36-6.13-1.96-1.96.39-2.91,1.34-2.59,2.83.24,1.1,1.02,1.81,2.28,2.36Z"/>
      <path class="cls-1" d="M23.03,321c-.08-3.62-1.89-5.27-5.42-4.95l-.08-.94c7-2.28,10.45-1.42,10.3,2.44-.16.39-.24.94-.39,1.65-.31,2.2-.63,5.03-.86,8.49,2.59-.71,4.87-1.81,6.76-3.22,1.02-.55,1.73-.79,2.2-.71,1.18.08,2.2.47,3.14,1.42.39.39.63.63.63.86,0,1.65-4.25,3.3-12.81,5.03l-.08.55v14.7c6.05-4.01,11.48-6.05,16.27-6.05,3.85,0,7,.86,9.43,2.67,5.19,4.01,4.95,11.32-1.02,15.8-2.59,1.81-5.66,2.75-9.35,2.75-3.38,0-6.68-.47-9.9-1.34l.47-1.49c3.07.39,5.66.55,7.86.39,2.51-.24,4.79-.94,7-2.12,5.19-3.69,5.03-9.12,1.49-11.79-1.73-1.18-3.93-1.81-6.76-1.81-4.32,0-9.51,2.04-15.48,6.05v5.82c0,2.67-.55,4.48-1.65,5.58-1.96,2.52-3.77,2.91-5.5,1.02l-5.42-5.9c-2.75.79-5.66,1.02-8.72.71l-.94-1.89c5.58.63,11.87-1.49,18.79-6.29l.08-17.21c-1.81.24-3.62.31-5.42.16-4.09-.24-7.31-2.04-9.51-5.34l.47-1.41c2.52,2.28,5.58,3.54,9.04,3.77,1.89.08,3.69,0,5.42-.24v-7.15ZM17.45,356.6l3.46,2.04c.63.24,1.02-.24,1.26-1.49.39-1.49.63-3.38.79-5.74-2.28,1.73-4.64,3.07-7.15,3.93l1.65,1.26ZM52.97,328.47c3.69-.24,6.29.47,7.62,2.04,1.26,1.49,1.26,2.67-.08,3.62-.71.47-1.81.47-3.14-.24-4.72-2.36-11.08-1.96-19.1,1.1l-1.02-.79c6.84-3.77,12.03-5.66,15.72-5.74Z"/>
      <path class="cls-1" d="M22.01,394.19c-.86-2.2-1.81-4.01-2.75-5.58-2.2-3.69-.71-6.13,4.48-7.23,2.12-.39,5.11-.16,8.88.55.63.16.94-.08.87-.63-1.26-2.36-4.48-4.24-9.67-5.58l.47-.94c5.27.16,9.2,1.1,11.87,2.75,1.89,1.02,2.91,2.28,2.99,3.69,0,1.1-.31,2.04-1.18,2.75-.47.31-1.02.63-1.73.87-.31,0-1.73-.24-4.25-.79-2.51-.63-5.03-.79-7.54-.63-2.52.24-3.07,1.65-1.49,4.32.55,1.18,1.34,2.83,2.2,4.87,9.43-4.4,16.66-6.68,21.77-6.68,3.77,0,6.92,1.02,9.43,3.06,2.67,2.12,4.09,4.72,4.32,7.78.24,3.38-1.1,6.21-3.77,8.49-2.28,2.12-5.11,3.14-8.49,3.14-5.82-.16-10.85-2.91-15.17-8.33l.71-.87c4.87,4.09,9.04,6.05,12.5,6.05,2.28,0,4.32-.55,6.13-1.73,2.59-1.57,3.77-3.93,3.62-6.84-.16-2.59-1.26-4.56-3.38-6.05-1.81-1.26-3.93-1.89-6.45-1.89-4.64,0-11.24,2.36-19.73,7.15l4.72,9.9c3.62,7.78,6.13,13.13,7.54,15.96.55,1.18.86,2.2.86,3.14.16,2.51-.63,3.77-2.2,3.77-.94,0-1.96-1.34-2.99-4.17-4.24-12.03-7.86-20.99-10.85-26.96l-.39.08c-2.99,1.89-5.5,3.46-7.54,4.79-1.02.63-1.89.94-2.75.94-2.04,0-4.17-1.42-6.21-4.32l.39-1.26c1.57.71,2.83,1.02,3.69,1.02,1.26,0,3.77-.94,7.54-2.91l3.54-1.73Z"/>
      <path class="cls-1" d="M5.66,452.12c1.96,1.42,3.46,2.12,4.4,2.12,1.81.24,3.54-.16,5.27-1.34,11.71-7.62,20.44-11.4,26.33-11.4,5.11,0,9.12,1.18,12.03,3.46,3.54,2.83,5.27,6.45,5.27,10.85,0,6.29-3.14,11.47-9.59,15.41-5.66,3.46-13.6,5.42-23.74,5.82l-.63-1.34c19.41-2.83,29.08-9.51,29.08-19.96,0-3.77-1.26-6.68-3.77-8.72-2.28-1.81-5.11-2.75-8.65-2.75-6.68,0-15.72,4.79-27.2,14.23-.94.55-1.73.79-2.36.79-2.36,0-4.64-2.12-6.84-6.29l.39-.86Z"/>
      <path class="cls-1" d="M27.67,494.64c-.24-1.26-1.34-2.36-3.54-3.3l.31-.71c1.57-.16,2.59-.31,2.99-.31,3.22,0,4.95.86,5.11,2.44.08,1.1-1.02,4.09-3.38,9.04,1.89-.24,3.22-.71,4.01-1.26,1.34-.71,2.2-1.02,2.75-.94.86.08,1.65.31,2.36.86.71.31,1.02.79,1.02,1.34,0,.71-.71,1.42-2.04,1.96-2.99.94-6.29,1.49-9.98,1.57l-6.37,10.22c1.65-1.34,3.46-1.96,5.42-1.96,3.46,0,5.42,2.51,5.74,7.39,6.05-3.62,11.4-6.6,16.11-8.96,1.02-.63,1.49-1.26,1.49-1.81,0-.71-.71-1.42-2.12-2.12l.79-.47c4.72,1.02,7,2.59,6.92,4.79,0,.71-.94,1.41-2.91,2.12-6.92,3.14-13.52,6.37-19.96,9.67.08,2.04.16,4.01.16,5.9,0,1.18-.31,2.2-.86,2.99-.71.94-1.42,1.34-2.2,1.34-1.26,0-1.89-1.18-1.73-3.46.16-1.73.24-2.99.16-3.93-3.69,2.99-5.5,5.82-5.5,8.65s3.46,3.93,10.3,3.3c3.69-.24,6.92-.79,9.67-1.65.79-.31,1.42-.47,1.89-.47.86,0,1.49.16,2.04.55,1.02.86,1.57,1.65,1.57,2.44,0,1.81-4.24,2.83-12.65,3.07-10.61.24-15.96-2.12-15.96-7.07,0-3.93,2.99-8.1,8.8-12.5,0-4.87-.79-7.31-2.44-7.39-2.2-.16-4.79,2.12-7.94,6.92-.63,1.02-1.18,1.57-1.65,1.57-.55,0-1.02-.24-1.34-.63-.86-.71-1.34-1.65-1.42-2.91-.16-.71.87-2.2,2.83-4.4,3.22-3.77,5.66-7.55,7.39-11.32-.47,0-.86-.08-1.34-.08-4.72-.47-8.17-3.07-10.38-7.86l1.02-.63c1.89,3.07,4.95,4.87,9.2,5.34,1.1.08,2.12.16,2.91.16,1.89-3.77,2.75-6.29,2.75-7.47Z"/>
      <path class="cls-1" d="M10.69,612.85v-22.24H.86l-.47-2.12h9.35l2.51-3.54,5.74,4.95c-.47.47-1.57,1.1-3.54,1.41v20.36c5.42,6.13,11.4,7.07,24.21,7.07,9.04,0,21.22,0,30.34-.24v1.02c-1.89.31-3.07,1.42-3.3,3.38h-26.96c-13.68,0-19.88-1.65-25.31-9.75-2.67,3.07-6.84,7.31-9.51,9.67.24.86-.08,1.34-.63,1.73l-3.3-5.27c2.59-1.34,6.84-3.93,10.69-6.45ZM2.36,559.01c16.98,6.52,13.6,17.84,8.65,14.3-.94-4.64-5.58-10.38-9.51-13.75l.86-.55ZM32.54,599.49v-9.04h-10.61l-.55-2.12h11.16v-6.92l5.74.63c-.08.86-.63,1.42-1.73,1.65v4.64h11.63v-6.92l5.74.63c-.16.86-.71,1.42-1.81,1.73v4.56h4.48l2.91-3.69s3.46,2.67,5.58,4.72c-.24.79-1.02,1.1-1.89,1.1h-11.08v9.04h7.31l3.22-3.93s3.62,2.83,5.89,4.95c-.24.79-.86,1.18-1.89,1.18H18.86l-.55-2.2h14.23ZM34.74,602.87l5.82,2.91c-.47.79-1.57,1.02-3.3.71-3.62,3.22-10.61,7.15-17.06,9.12l-.71-1.18c5.97-2.83,12.42-7.86,15.25-11.55ZM34.74,559.96l2.12-2.2,4.87,3.69c-.39.47-1.42.94-2.59,1.18v8.41c-.08.47-2.04,1.42-3.22,1.42h-.63v-2.44h-10.45v6.21c0,.79.16.94,2.04.94h5.11c2.2,0,4.17,0,4.79-.08.47,0,.79-.08,1.02-.39.47-.55.94-2.2,1.42-3.85h.87l.24,3.85c1.34.31,1.73.71,1.73,1.49,0,1.57-1.73,2.04-10.14,2.04h-5.66c-4.4,0-5.03-.86-5.03-3.38v-11.08l4.56,2.12h9.51v-5.74h-14.38l-.63-2.2h14.46ZM48.18,590.45h-11.63v9.04h11.63v-9.04ZM44.01,559.96h14.93l2.12-2.2,4.87,3.69c-.39.47-1.42.94-2.59,1.18v8.41c0,.47-1.96,1.42-3.3,1.42h-.55v-2.44h-10.77v6.21c0,.79.16.94,2.28.94h5.42c2.44,0,4.48,0,5.19-.08.55,0,.79-.08,1.1-.39.47-.71.94-2.51,1.42-4.32h.94l.16,4.24c1.34.39,1.73.79,1.73,1.57,0,1.57-1.81,2.04-10.61,2.04h-6.13c-4.32,0-5.03-.86-5.03-3.38v-11.08l4.48,2.12h9.82v-5.74h-14.85l-.63-2.2ZM46.21,603.81c25.07,5.5,18,15.09,13.75,11.24-2.44-3.22-7.31-6.92-14.23-9.98l.47-1.26Z"/>
      <path class="cls-1" d="M12.18,643.69c1.57,1.42,2.91,2.12,4.09,2.12.94,0,3.46-.47,7.39-1.34,2.52-.39,4.17-1.26,5.03-2.52.71-.63,1.34-.94,1.81-.94.71,0,1.73.39,2.99,1.34.79.71,1.26,1.34,1.26,1.81-.08.47-.71,1.18-1.81,2.2-10.92,9.98-16.74,18.78-17.37,26.41-.31,4.01.71,7.07,3.14,9.35,2.28,2.12,5.03,3.14,8.41,3.14,3.62,0,7.39-1.81,11.24-5.5,3.69-4.01,6.21-9.51,7.47-16.43.94-5.03,1.18-11,.63-18-.08-.94-.39-2.04-.79-3.14-.31-.79-.47-1.34-.39-1.65.08-.87,1.26-1.34,3.38-1.34,1.26.55,1.89,1.65,1.81,3.3.31,4.24,1.73,9.98,4.4,17.29,1.18,3.85,2.99,7.31,5.42,10.45.08,0,.16.08.31.16.24.24.39.47.39.55.94,1.26,1.18,2.59.79,3.85-.71,1.81-1.57,2.59-2.67,2.44-.71-.08-1.65-1.34-2.91-3.77-2.52-4.87-4.72-12.1-6.6-21.69.24,4.17-.08,8.72-1.02,13.75-1.34,7.39-4.09,13.13-8.1,17.21-4.48,4.24-8.96,6.52-13.44,6.76-4.24.16-7.78-1.1-10.61-3.62-3.14-3.07-4.48-7-4.09-11.95.39-5.11,2.67-10.69,6.84-16.74,2.44-3.46,5.03-6.92,7.94-10.53-3.85.55-6.68,1.65-8.72,3.22-.87.63-1.49.94-1.96.94-.71,0-1.34-.31-1.89-1.02-1.1-1.18-2.04-3.07-2.91-5.58l.55-.55ZM52.5,636.93c5.34.47,8.96,2.36,10.92,5.66.63,1.42.16,2.28-1.18,2.59-.94.24-1.96-.39-3.07-1.89-1.73-2.44-4.01-4.25-6.92-5.5l.24-.87ZM69.32,636.77c.71,1.26.47,2.12-.79,2.67-.94.39-2.04-.08-3.38-1.42-2.12-1.96-4.72-3.3-7.7-4.09v-.94c5.34-.47,9.28.79,11.87,3.77Z"/>
      <path class="cls-1" d="M27.82,707.1c0-1.41-.87-2.99-2.67-4.72l.79-.39c4.72,1.18,7,2.59,7,4.24,0,.63-.16,1.26-.55,1.73-.39.86-1.1,2.44-1.96,4.87-.24.63-.47,1.41-.87,2.36l-.31.79c1.18-.31,2.44-.94,3.69-1.81,1.02-.55,1.81-.86,2.36-.86,1.1,0,2.2.31,3.14,1.02.39.39.55.71.55,1.18,0,1.65-3.77,3.07-11.24,4.32-4.87,12.34-9.35,22.48-13.52,30.42-1.02,2.04-1.89,3.14-2.51,3.14-.47,0-.94-.31-1.42-.79-.55-.79-.87-1.57-.87-2.44,0-1.1.55-2.44,1.57-4.01,4.17-6.21,8.41-14.85,12.73-25.94-3.69.24-5.97.31-6.68.31-4.01,0-6.92-1.81-8.8-5.34l.39-1.1c2.44,2.28,5.27,3.38,8.49,3.38,1.42,0,4.01-.16,8.02-.55,1.81-5.34,2.67-8.65,2.67-9.83ZM38.43,737.83c-2.99,6.21-.94,9.82,6.21,11,1.89.24,4.4.31,7.47.31,1.57.08,2.52.16,2.91.24,1.1.16,1.96.55,2.67,1.1.94.71,1.34,1.34,1.26,1.96-.39,1.57-4.25,1.89-11.55.79-11.71-1.65-15.33-6.6-10.85-14.86l1.89-.55ZM57.77,719.91c6.84,5.9-2.28,9.83-9.9,10.69l-.39-1.02c3.85-1.1,6.21-2.36,7.15-3.77,1.02-1.42.71-2.99-.86-4.56-1.42-1.57-4.64-2.36-9.59-2.52l-.16-1.26c5.58-1.18,10.14-.39,13.75,2.44Z"/>
      <path class="cls-1" d="M31.36,785.7c-4.32,5.58-6.92,10.38-7.7,14.3-.86,4.01-2.67,4.72-5.42,2.12-2.36-2.28-3.93-5.27-4.79-9.04-.79-3.22-1.18-8.33-1.26-15.25,0-2.44-.16-4.17-.47-5.27-.39-1.1-1.1-1.96-2.28-2.59l.08-1.1c4.79.24,7.23,1.89,7.23,4.95,0,.55-.08,1.34-.31,2.28-.63,2.75-.94,5.58-.94,8.41,0,5.89,1.1,10.22,3.3,12.97,1.96,1.96,4.87-5.5,11.4-12.73l1.18.94ZM56.35,780.98c2.28,3.07,3.46,5.82,3.46,8.33.08,2.44-.79,3.62-2.59,3.62-1.02,0-1.81-.94-2.2-2.91,0-6.05-4.72-13.44-13.28-11.24v-1.18c5.74-2.12,10.61-1.02,14.62,3.38Z"/>
    </g>
  </g>
</svg>